<svg width="150" height="150" viewBox="0 0 150 150" fill="none" xmlns="http://www.w3.org/2000/svg"><circle cx="75" cy="65" r="25" fill="#fff" filter="url(#a)"/><circle cx="75" cy="65" r="25" fill="#fff"/><circle cx="75.236" cy="64.764" r="21.934" fill="#FC6733"/><path d="M78.727 57.507c-.383.322-.766.64-1.15.962.086.428.175.86.26 1.288.04.2-.01.387-.205.513a.66.66 0 0 1-.635.042c-.463-.207-.926-.417-1.39-.621-.465.204-.928.411-1.394.62a.667.667 0 0 1-.635-.043.462.462 0 0 1-.206-.511l.26-1.288-1.143-.96a.438.438 0 0 1-.146-.474.527.527 0 0 1 .4-.341l1.633-.202c.245-.419.494-.837.74-1.256a.467.467 0 0 1 .246-.195.743.743 0 0 1 .537.02.47.47 0 0 1 .157.111c.003.005.01.008.012.013l.009.01c.002.004.005.01.008.011l.017.03.026.044.712 1.212 1.638.202a.526.526 0 0 1 .4.34.449.449 0 0 1-.151.473zm8.631 8.653v-.03c0-.027-.006-.053-.009-.078-.063-.399-.42-.681-.91-.694-.06-.002-.122-.002-.182-.002h-3.731v-1.098c0-.514.014-1.027 0-1.541v-.032a.379.379 0 0 0-.009-.08v-.002c-.065-.404-.428-.694-.926-.702l-.2-.002h-11.26c-.172 0-.347-.002-.521.002-.518.013-.935.339-.95.787v2.668h-3.676c-.311 0-.609.024-.86.214-.338.256-.295.602-.295.942v6.785c0 .728-.014 1.456 0 2.181v.032c0 .263.263.485.572.485h8.376v-5.29c0-.264.263-.48.572-.48h4.546c.308 0 .572.216.572.48v5.29h1.92c.515 0 1.033.012 1.547 0h4.856c.308 0 .572-.22.572-.482V67.29c-.003-.377.008-.754-.003-1.132zM67.43 72.522c0 .273-.263.475-.572.487-.308.012-.571-.231-.571-.487v-3.805c0-.273.263-.475.571-.487.31-.012.572.231.572.487v3.805zm6.49-5.163c0 .272-.263.474-.572.487-.309.012-.572-.232-.572-.487v-2.362c0-.273.263-.475.572-.487.309-.012.572.232.572.487v2.362zm4.545 0c0 .272-.262.474-.571.487-.31.012-.572-.232-.572-.487v-2.362c0-.273.263-.475.572-.487.308-.012.572.232.572.487v2.362zm6.605 5.163c0 .273-.263.475-.572.487-.309.012-.572-.231-.572-.487v-3.805c0-.273.263-.475.572-.487.309-.012.572.231.572.487v3.805z" fill="#fff"/><defs><filter id="a" x="0" y="0" width="150" height="150" filterUnits="userSpaceOnUse" color-interpolation-filters="sRGB"><feFlood flood-opacity="0" result="BackgroundImageFix"/><feColorMatrix in="SourceAlpha" values="0 0 0 0 0 0 0 0 0 0 0 0 0 0 0 0 0 0 127 0" result="hardAlpha"/><feOffset dy="10"/><feGaussianBlur stdDeviation="25"/><feColorMatrix values="0 0 0 0 0 0 0 0 0 0 0 0 0 0 0 0 0 0 0.1 0"/><feBlend in2="BackgroundImageFix" result="effect1_dropShadow_2_118"/><feBlend in="SourceGraphic" in2="effect1_dropShadow_2_118" result="shape"/></filter></defs></svg>