<svg width="150" height="150" viewBox="0 0 150 150" fill="none" xmlns="http://www.w3.org/2000/svg"><circle cx="75" cy="65" r="25" fill="#fff" filter="url(#a)"/><circle cx="75" cy="65" r="25" fill="#fff"/><circle cx="75.236" cy="64.764" r="21.934" fill="#FC6733"/><path d="M72.047 68.189h7.129v3.307h-7.129V68.19z" fill="#fff"/><path d="M79.016 58.757v-2.205c0-.858-.681-1.552-1.522-1.552h-3.765c-.84 0-1.522.694-1.522 1.552v2.205a6.802 6.802 0 0 0-3.283 5.839v7.798c0 1.225.96 2.205 2.162 2.205h9.01c1.202 0 2.163-.98 2.163-2.205v-7.799c0-2.49-1.281-4.654-3.244-5.839zm-5.487-2.205c0-.123.08-.205.2-.205h3.764c.12 0 .2.082.2.205v1.592c-.64-.204-1.36-.367-2.082-.367-.72 0-1.442.122-2.082.367v-1.592zm6.487 15.394c0 .245-.2.449-.44.449h-7.97a.449.449 0 0 1-.44-.45V67.74c0-.245.2-.45.44-.45h8.01c.24 0 .44.205.44.45v4.206h-.04zm-.12-8.208h-8.01a.449.449 0 0 1 0-.898h8.01a.449.449 0 0 1 0 .898zm3.244 1.715h2.083v6.37H83.14v-6.37zm-17.14 0h2.082v6.37H66v-6.37zm4.726-6.696l-.24-1.021c-.08-.49-.521-.858-1.042-.858-.68 0-1.201.654-1.041 1.348l.6 2.695a7.423 7.423 0 0 1 1.723-2.164zm11.053-1.878c-.52 0-.921.367-1.041.857l-.24 1.02a8.152 8.152 0 0 1 1.721 2.165l.6-2.695c.161-.694-.36-1.347-1.04-1.347z" fill="#fff"/><defs><filter id="a" x="0" y="0" width="150" height="150" filterUnits="userSpaceOnUse" color-interpolation-filters="sRGB"><feFlood flood-opacity="0" result="BackgroundImageFix"/><feColorMatrix in="SourceAlpha" values="0 0 0 0 0 0 0 0 0 0 0 0 0 0 0 0 0 0 127 0" result="hardAlpha"/><feOffset dy="10"/><feGaussianBlur stdDeviation="25"/><feColorMatrix values="0 0 0 0 0 0 0 0 0 0 0 0 0 0 0 0 0 0 0.1 0"/><feBlend in2="BackgroundImageFix" result="effect1_dropShadow_2_143"/><feBlend in="SourceGraphic" in2="effect1_dropShadow_2_143" result="shape"/></filter></defs></svg>