<svg width="150" height="150" viewBox="0 0 150 150" fill="none" xmlns="http://www.w3.org/2000/svg"><circle cx="75" cy="65" r="25" fill="#fff" filter="url(#a)"/><circle cx="75" cy="65" r="25" fill="#fff"/><circle cx="75.236" cy="64.764" r="21.934" fill="#FC6733"/><path d="M66.564 67.14a2.327 2.327 0 0 1-.411-1.698 2.279 2.279 0 0 1 .79-1.526l4.422-3.779-3.506-2.947a.66.66 0 0 0-.853 0l-6.729 5.686a.679.679 0 0 0-.252.52c-.063.209 0 .417.126.59s.348.277.474.277h1.232v5.72c0 .417.316.764.695.764h5.433v-2.705c-.537-.07-1.074-.416-1.421-.901zm23.154-4.264l-6.76-5.72a.661.661 0 0 0-.853 0l-3.507 2.982 4.455 3.779c.442.381.726.936.79 1.525.063.624-.064 1.214-.412 1.7a2.053 2.053 0 0 1-1.42.866v2.739h5.432c.38 0 .695-.347.695-.763v-5.72h1.169c.221 0 .41-.105.537-.278a.833.833 0 0 0-.126-1.11z" fill="#fff"/><path d="M82.2 65.13l-6.76-5.72a.661.661 0 0 0-.853 0l-6.791 5.72a.838.838 0 0 0-.284.52.95.95 0 0 0 .126.59c.126.173.347.311.474.311h1.232v5.686c0 .416.316.763.695.763h5.843v-5.616c0-.208.158-.382.348-.382h1.642c.19 0 .348.174.348.382v5.582h1.643c.379 0 .695-.347.695-.763v-5.686h1.168c.221 0 .41-.104.537-.312.284-.347.221-.832-.063-1.075zm-8.118 4.057c0 .208-.158.381-.347.381h-1.643c-.19 0-.348-.173-.348-.381v-1.803c0-.208.158-.382.348-.382h1.642c.19 0 .348.174.348.382v1.803z" fill="#fff"/><defs><filter id="a" x="0" y="0" width="150" height="150" filterUnits="userSpaceOnUse" color-interpolation-filters="sRGB"><feFlood flood-opacity="0" result="BackgroundImageFix"/><feColorMatrix in="SourceAlpha" values="0 0 0 0 0 0 0 0 0 0 0 0 0 0 0 0 0 0 127 0" result="hardAlpha"/><feOffset dy="10"/><feGaussianBlur stdDeviation="25"/><feColorMatrix values="0 0 0 0 0 0 0 0 0 0 0 0 0 0 0 0 0 0 0.1 0"/><feBlend in2="BackgroundImageFix" result="effect1_dropShadow_2_148"/><feBlend in="SourceGraphic" in2="effect1_dropShadow_2_148" result="shape"/></filter></defs></svg>