<svg width="150" height="150" viewBox="0 0 150 150" fill="none" xmlns="http://www.w3.org/2000/svg"><circle cx="75" cy="65" r="25" fill="#fff" filter="url(#a)"/><circle cx="75" cy="65" r="25" fill="#fff"/><circle cx="75.236" cy="64.764" r="21.934" fill="#FC6733"/><path d="M75 61.629a4.812 4.812 0 1 0 0 9.625 4.812 4.812 0 1 0 0-9.625zm2.98 5.271c-.276 0-.46-.183-.46-.458A2.543 2.543 0 0 0 75 63.92c-.275 0-.459-.184-.459-.459s.184-.458.459-.458c1.879 0 3.437 1.558 3.437 3.437 0 .276-.183.459-.458.459z" fill="#fff"/><path d="M84.625 59.383h-4.95l-.596-1.512A1.38 1.38 0 0 0 77.796 57h-5.684c-.55 0-1.1.367-1.283.87l-.596 1.513h-1.146v-1.1h-2.566v1.1h-1.146A1.35 1.35 0 0 0 64 60.758v11.367c0 .78.596 1.375 1.375 1.375h19.25A1.35 1.35 0 0 0 86 72.125V60.758a1.38 1.38 0 0 0-1.375-1.375zm-16.591 3.575h-2.246c-.275 0-.459-.183-.459-.458s.184-.458.459-.458h2.246c.275 0 .458.183.458.458a.46.46 0 0 1-.458.458zM75 72.171a5.731 5.731 0 0 1-5.729-5.73 5.731 5.731 0 0 1 5.73-5.729 5.731 5.731 0 0 1 5.728 5.73A5.732 5.732 0 0 1 75 72.17zm9.35-9.534h-3.025v-1.466h3.025v1.466z" fill="#fff"/><defs><filter id="a" x="0" y="0" width="150" height="150" filterUnits="userSpaceOnUse" color-interpolation-filters="sRGB"><feFlood flood-opacity="0" result="BackgroundImageFix"/><feColorMatrix in="SourceAlpha" values="0 0 0 0 0 0 0 0 0 0 0 0 0 0 0 0 0 0 127 0" result="hardAlpha"/><feOffset dy="10"/><feGaussianBlur stdDeviation="25"/><feColorMatrix values="0 0 0 0 0 0 0 0 0 0 0 0 0 0 0 0 0 0 0.1 0"/><feBlend in2="BackgroundImageFix" result="effect1_dropShadow_2_108"/><feBlend in="SourceGraphic" in2="effect1_dropShadow_2_108" result="shape"/></filter></defs></svg>