<svg width="150" height="150" viewBox="0 0 150 150" fill="none" xmlns="http://www.w3.org/2000/svg"><circle cx="75" cy="65" r="25" fill="#fff" filter="url(#a)"/><circle cx="75" cy="65" r="25" fill="#fff"/><circle cx="75.236" cy="64.764" r="21.934" fill="#FC6733"/><path fill-rule="evenodd" clip-rule="evenodd" d="M72.756 58.75c-.325-1.559-2.142-2.753-4.1-2.75-1.956.003-3.743 1.183-4.077 2.75-.082.395-.23 1.497.454 3.768.393 1.314 1.692 2.369 3.635 2.369 1.943 0 3.24-1.055 3.637-2.37.68-2.27.533-3.372.45-3.768zm.044 6.866a2.989 2.989 0 0 0-1.328-.672 3.97 3.97 0 0 1-2.812 1.03 3.976 3.976 0 0 1-2.81-1.027 3.022 3.022 0 0 0-1.333.68C63.325 66.91 63.055 70.713 63 72.76h11.338c-.055-2.055-.33-5.867-1.538-7.144zm12.147-.013a2.977 2.977 0 0 0-1.326-.672 3.976 3.976 0 0 1-2.815 1.03 3.977 3.977 0 0 1-2.817-1.03 3.007 3.007 0 0 0-1.325.683c-1.203 1.284-1.476 5.094-1.53 7.146h11.368c-.069-2.06-.345-5.878-1.555-7.157z" fill="#fff"/><path d="M86.087 60.135a3.37 3.37 0 0 0-1.132-.101 4.466 4.466 0 0 0-.052-1.28 3.159 3.159 0 0 0-1.287-1.844 4.633 4.633 0 0 0-1.558-.735 4.879 4.879 0 0 0-1.251-.167c-.487 0-.972.074-1.438.216a4.507 4.507 0 0 0-1.694.946 3.008 3.008 0 0 0-.968 1.593c-.073.42-.088.847-.043 1.27-.38-.03-.761.004-1.129.102-.65.175-1.806 1.074-1.44 2.52.153.6 1.12 1.327 1.798 1.743-.38-1.066-.322-1.992-.05-2.569.202-.393.53-.706.93-.89.098.54.227 1.073.388 1.598.02.063.041.123.063.183.459 1.233 1.724 2.186 3.583 2.186 1.858 0 3.126-.964 3.582-2.202.022-.058.044-.115.06-.175.16-.526.291-1.06.391-1.6.402.187.728.504.927.9.273.582.333 1.508-.041 2.574.677-.415 1.64-1.142 1.798-1.743.366-1.451-.79-2.35-1.438-2.525z" fill="#fff"/><defs><filter id="a" x="0" y="0" width="150" height="150" filterUnits="userSpaceOnUse" color-interpolation-filters="sRGB"><feFlood flood-opacity="0" result="BackgroundImageFix"/><feColorMatrix in="SourceAlpha" values="0 0 0 0 0 0 0 0 0 0 0 0 0 0 0 0 0 0 127 0" result="hardAlpha"/><feOffset dy="10"/><feGaussianBlur stdDeviation="25"/><feColorMatrix values="0 0 0 0 0 0 0 0 0 0 0 0 0 0 0 0 0 0 0.1 0"/><feBlend in2="BackgroundImageFix" result="effect1_dropShadow_2_133"/><feBlend in="SourceGraphic" in2="effect1_dropShadow_2_133" result="shape"/></filter></defs></svg>