<svg width="150" height="150" viewBox="0 0 150 150" fill="none" xmlns="http://www.w3.org/2000/svg"><circle cx="75" cy="65" r="25" fill="#fff" filter="url(#a)"/><circle cx="75" cy="65" r="25" fill="#fff"/><circle cx="75.236" cy="64.764" r="21.934" fill="#FC6733"/><path d="M64.535 65.17a.464.464 0 0 0-.49.42c-.251 2.554.56 5.136 2.168 6.913 1.558 1.718 3.753 2.627 6.35 2.627.327 0 .665-.015 1.012-.044a.469.469 0 0 0 .426-.423c.235-2.427-.391-4.582-1.812-6.228-1.67-1.937-4.388-3.097-7.654-3.266zm21.42.42a.467.467 0 0 0-.49-.42c-3.264.168-5.983 1.328-7.653 3.263-1.421 1.648-2.048 3.803-1.812 6.23.02.225.2.403.426.42.347.03.684.045 1.012.045 2.596 0 4.793-.908 6.35-2.628 1.609-1.77 2.419-4.356 2.167-6.91zm-4.739-5.246a6.455 6.455 0 0 0-6.447-6.449 6.456 6.456 0 0 0-6.448 6.449 6.456 6.456 0 0 0 6.448 6.45c3.555 0 6.447-2.894 6.447-6.45z" fill="#fff"/><defs><filter id="a" x="0" y="0" width="150" height="150" filterUnits="userSpaceOnUse" color-interpolation-filters="sRGB"><feFlood flood-opacity="0" result="BackgroundImageFix"/><feColorMatrix in="SourceAlpha" values="0 0 0 0 0 0 0 0 0 0 0 0 0 0 0 0 0 0 127 0" result="hardAlpha"/><feOffset dy="10"/><feGaussianBlur stdDeviation="25"/><feColorMatrix values="0 0 0 0 0 0 0 0 0 0 0 0 0 0 0 0 0 0 0.1 0"/><feBlend in2="BackgroundImageFix" result="effect1_dropShadow_2_123"/><feBlend in="SourceGraphic" in2="effect1_dropShadow_2_123" result="shape"/></filter></defs></svg>