<svg width="150" height="150" viewBox="0 0 150 150" fill="none" xmlns="http://www.w3.org/2000/svg"><circle cx="75" cy="65" r="25" fill="#fff" filter="url(#a)"/><circle cx="75" cy="65" r="25" fill="#fff"/><circle cx="75.236" cy="64.764" r="21.934" fill="#FC6733"/><path d="M67.512 57.53a2.512 2.512 0 1 0 0 5.023 2.512 2.512 0 0 0 0-5.023z" fill="#fff"/><path d="M72.536 57.53a2.511 2.511 0 1 0 0 5.022 2.511 2.511 0 0 0 0-5.022z" fill="#fff"/><path d="M77.56 57.53a2.512 2.512 0 1 0 0 5.023 2.512 2.512 0 0 0 0-5.023zm-7.536 5.023a2.511 2.511 0 1 0 0 5.023 2.511 2.511 0 0 0 0-5.023z" fill="#fff"/><path d="M75.048 62.553a2.511 2.511 0 1 0 0 5.023 2.511 2.511 0 0 0 0-5.023zm-2.512 5.024a2.511 2.511 0 1 0 0 5.023 2.511 2.511 0 0 0 0-5.023zm2.512 5.024a2.511 2.511 0 1 0 0 5.023 2.511 2.511 0 0 0 0-5.023z" fill="#fff"/><path d="M77.56 67.577a2.512 2.512 0 1 0 0 5.023 2.512 2.512 0 0 0 0-5.023zm2.512-5.024a2.512 2.512 0 1 0 0 5.024 2.512 2.512 0 0 0 0-5.024zm2.512-5.023a2.512 2.512 0 1 0 0 5.023 2.512 2.512 0 0 0 0-5.023zm-9.734-2.97c.693.264 1.446.372 2.13.626.021.008-1.065 2.344-1.11 2.344h2.88c.205 0 .64-.955.738-1.112.427-.69.88-1.733 1.574-2.186.66-.43 1.508-.417 2.266-.417V52.48c0-.028-3.702.018-4.027.042-1.078.078-2.262-.043-3.326-.225-1.019-.175-1.884-.445-2.72-1.047l.051 2.538c.006.277 1.332.691 1.544.772" fill="#fff"/><defs><filter id="a" x="0" y="0" width="150" height="150" filterUnits="userSpaceOnUse" color-interpolation-filters="sRGB"><feFlood flood-opacity="0" result="BackgroundImageFix"/><feColorMatrix in="SourceAlpha" values="0 0 0 0 0 0 0 0 0 0 0 0 0 0 0 0 0 0 127 0" result="hardAlpha"/><feOffset dy="10"/><feGaussianBlur stdDeviation="25"/><feColorMatrix values="0 0 0 0 0 0 0 0 0 0 0 0 0 0 0 0 0 0 0.1 0"/><feBlend in2="BackgroundImageFix" result="effect1_dropShadow_2_138"/><feBlend in="SourceGraphic" in2="effect1_dropShadow_2_138" result="shape"/></filter></defs></svg>