<svg width="46" height="45" viewBox="0 0 46 45" fill="none" xmlns="http://www.w3.org/2000/svg"><path d="M44.364 39.19l-.039-.04-9.343-9.352-.288-.289.224-.34a18.426 18.426 0 0 0 3.044-10.168l6.402 20.188zm0 0c.829.872.852 2.309.043 3.205l.371.335-.37-.335-1.266 1.401a2.106 2.106 0 0 1-3.047.101l-9.738-9.445-.29-.282-.336.225a18.372 18.372 0 0 1-10.25 3.107C9.275 37.502 1 29.219 1 19 1 8.783 9.274.501 19.48.5 29.687.5 37.962 8.783 37.963 19l6.402 20.19zM19.48 4.93c-7.765 0-14.058 6.3-14.058 14.072 0 7.77 6.294 14.072 14.058 14.072s14.057-6.301 14.058-14.072c0-7.771-6.293-14.072-14.058-14.072z" fill="#FC6733" stroke="#F9F9FA"/><path d="M16.352 24.846l-2.711-2.715 8.966-8.975 2.711 2.714-8.966 8.976z" fill="#FC6733"/><path d="M25.32 22.133l-2.712 2.714-8.965-8.975 2.711-2.715 8.966 8.976z" fill="#FC6733"/></svg>