<svg width="21" height="20" viewBox="0 0 21 20" fill="none" xmlns="http://www.w3.org/2000/svg"><path fill-rule="evenodd" clip-rule="evenodd" d="M3.416 8.598c0-3.833 3.203-6.932 7.078-6.932 3.885 0 7.089 3.099 7.089 6.932 0 1.932-.703 3.725-1.86 5.245a18.389 18.389 0 0 1-4.617 4.284c-.405.265-.77.285-1.215 0a18.035 18.035 0 0 1-4.616-4.284c-1.157-1.52-1.859-3.313-1.859-5.245zm4.745.216c0 1.284 1.048 2.294 2.333 2.294 1.286 0 2.344-1.01 2.344-2.294 0-1.274-1.058-2.333-2.344-2.333A2.345 2.345 0 0 0 8.16 8.814z" fill="#FC6733"/></svg>