<svg width="20" height="20" viewBox="0 0 20 20" fill="none" xmlns="http://www.w3.org/2000/svg"><path d="M16.314 9.805h.167a1.075 1.075 0 0 0 0-2.148h-3.407c-.204 0-.334-.167-.315-.37.222-1.482.537-1.982.685-3.52.148-1.48-1.963-1.74-2.26-.37-.573 2.556-2.685 4.26-3.37 4.778a.528.528 0 0 0-.222.445v6.111c0 .223.13.408.333.5.74.315 1.611 1.019 4.13 1.019h3.926a1.075 1.075 0 0 0 0-2.148h.13c.537 0 1.037-.39 1.111-.926a1.081 1.081 0 0 0-1.074-1.223h.13c.537 0 1.037-.388 1.11-.925a1.082 1.082 0 0 0-1.073-1.223zM6.221 8.323H3.573a.537.537 0 0 0-.537.537v5.667c0 .297.24.537.537.537h2.648c.297 0 .537-.24.537-.537V8.86a.537.537 0 0 0-.537-.537zM4.907 13.88a.577.577 0 0 1-.575-.574c0-.315.26-.574.575-.574.314 0 .574.26.574.574 0 .315-.26.574-.574.574z" fill="#1AA657"/></svg>