<svg width="16" height="17" viewBox="0 0 16 17" fill="none" xmlns="http://www.w3.org/2000/svg"><g opacity=".4"><path fill-rule="evenodd" clip-rule="evenodd" d="M13.778 7.104H1.895a.5.5 0 0 1 0-1h11.883a.5.5 0 0 1 0 1zm-2.977 2.603a.502.502 0 0 1-.503-.5c0-.276.221-.5.497-.5h.006a.5.5 0 0 1 0 1zm-2.958 0a.502.502 0 0 1-.503-.5c0-.276.22-.5.497-.5h.006a.5.5 0 0 1 0 1zm-2.965 0a.503.503 0 0 1-.503-.5c0-.276.221-.5.497-.5h.006a.5.5 0 0 1 0 1zm5.923 2.591a.502.502 0 0 1-.503-.5c0-.276.221-.5.497-.5h.006a.5.5 0 0 1 0 1zm-2.958 0a.502.502 0 0 1-.503-.5c0-.276.22-.5.497-.5h.006a.5.5 0 0 1 0 1zm-2.965 0a.503.503 0 0 1-.503-.5c0-.276.221-.5.497-.5h.006a.5.5 0 0 1 0 1zm5.652-7.937a.5.5 0 0 1-.5-.5V1.667a.5.5 0 0 1 1 0v2.194a.5.5 0 0 1-.5.5zm-5.386 0a.5.5 0 0 1-.5-.5V1.667a.5.5 0 0 1 1 0v2.194a.5.5 0 0 1-.5.5z" fill="#222"/><mask id="a" style="mask-type:alpha" maskUnits="userSpaceOnUse" x="1" y="2" width="14" height="14"><path fill-rule="evenodd" clip-rule="evenodd" d="M1.333 2.22h13V15.5h-13V2.22z" fill="#fff"/></mask><g mask="url(#a)"><path fill-rule="evenodd" clip-rule="evenodd" d="M5.014 3.22c-1.729 0-2.68.922-2.68 2.596v6.033c0 1.71.951 2.652 2.68 2.652h5.639c1.729 0 2.68-.924 2.68-2.601V5.816c.003-.823-.218-1.463-.658-1.903-.452-.453-1.148-.693-2.016-.693H5.014zm5.639 12.28H5.014c-2.27 0-3.68-1.399-3.68-3.651V5.816c0-2.218 1.41-3.596 3.68-3.596h5.645c1.14 0 2.081.342 2.724.986.625.628.954 1.53.95 2.612V11.9c0 2.22-1.41 3.6-3.68 3.6z" fill="#222"/></g></g></svg>