<svg width="18" height="18" viewBox="0 0 18 18" fill="none" xmlns="http://www.w3.org/2000/svg"><path fill-rule="evenodd" clip-rule="evenodd" d="M15.575 15.77c.46-.465.463-1.215.008-1.676l-5.019-5.082 4.846-4.906c.455-.46.451-1.21-.008-1.676a1.16 1.16 0 0 0-1.656-.008L8.901 7.328 4.055 2.422a1.16 1.16 0 0 0-1.656.008 1.196 1.196 0 0 0-.008 1.676l4.846 4.906-5.02 5.083c-.454.46-.45 1.21.009 1.675.46.466 1.2.47 1.655.009l5.02-5.082 5.019 5.082a1.16 1.16 0 0 0 1.655-.009z" fill="#222" fill-opacity=".3"/></svg>