<svg width="16" height="17" viewBox="0 0 16 17" fill="none" xmlns="http://www.w3.org/2000/svg"><g clip-path="url(#a)" stroke="#fff" stroke-width="2" stroke-linecap="round" stroke-linejoin="round"><path d="M5.332 3.167v8A1.333 1.333 0 0 0 6.665 12.5H12a1.333 1.333 0 0 0 1.333-1.333V5.328a1.333 1.333 0 0 0-.401-.953l-2.21-2.162a1.333 1.333 0 0 0-.932-.38H6.665a1.333 1.333 0 0 0-1.333 1.334z"/><path d="M10.666 12.5v1.334a1.334 1.334 0 0 1-1.333 1.333H3.999a1.334 1.334 0 0 1-1.333-1.333V6.5a1.333 1.333 0 0 1 1.333-1.333h1.334"/></g><defs><clipPath id="a"><path fill="#fff" transform="translate(0 .5)" d="M0 0h16v16H0z"/></clipPath></defs></svg>