<svg width="16" height="17" viewBox="0 0 16 17" fill="none" xmlns="http://www.w3.org/2000/svg"><path fill-rule="evenodd" clip-rule="evenodd" d="M8.165 14.67c-.904 0-1.784-.01-2.656-.027-1.114-.023-1.886-.745-2.012-1.886-.21-1.894-.57-6.356-.572-6.401a.5.5 0 0 1 .458-.539c.27-.007.516.184.538.458.004.046.362 4.493.57 6.371.072.65.422.984 1.039.996 1.667.036 3.367.038 5.2.005.657-.013 1.011-.341 1.085-1.005.206-1.863.566-6.321.57-6.367a.51.51 0 0 1 .538-.458.5.5 0 0 1 .459.539c-.004.045-.365 4.52-.573 6.396-.13 1.164-.9 1.873-2.06 1.894-.89.016-1.746.024-2.584.024m5.64-10.006H2.5a.5.5 0 0 1 0-1h11.305a.5.5 0 0 1 0 1" fill="#FC6733"/><path fill-rule="evenodd" clip-rule="evenodd" d="M11.627 4.663c-.758 0-1.417-.54-1.566-1.284l-.162-.81c-.034-.124-.175-.232-.335-.232H6.742c-.16 0-.3.108-.341.262l-.156.78A1.603 1.603 0 0 1 4.68 4.663a.5.5 0 0 1 0-1 .6.6 0 0 0 .586-.48l.162-.812a1.362 1.362 0 0 1 1.315-1.034h2.822c.612 0 1.15.413 1.308 1.004l.17.841a.6.6 0 0 0 .585.481.5.5 0 0 1 0 1" fill="#FC6733"/></svg>