<svg width="16" height="16" viewBox="0 0 16 16" fill="none" xmlns="http://www.w3.org/2000/svg"><path fill-rule="evenodd" clip-rule="evenodd" d="M8.164 14.667c-.903 0-1.784-.01-2.655-.028-1.115-.022-1.886-.745-2.012-1.886-.21-1.894-.57-6.356-.573-6.401a.5.5 0 0 1 .458-.539c.272-.007.517.184.539.458.003.046.362 4.493.57 6.372.071.648.421.983 1.039.996 1.666.035 3.367.037 5.2.004.656-.013 1.011-.341 1.084-1.005.207-1.863.567-6.321.571-6.367a.51.51 0 0 1 .538-.458.5.5 0 0 1 .459.539c-.004.045-.366 4.52-.574 6.396-.129 1.165-.898 1.873-2.06 1.895-.888.015-1.746.024-2.584.024zM13.805 4.66H2.5a.5.5 0 0 1 0-1h11.305a.5.5 0 0 1 0 1z" fill="#111D37"/><path fill-rule="evenodd" clip-rule="evenodd" d="M11.627 4.66a1.604 1.604 0 0 1-1.567-1.285l-.162-.81c-.034-.124-.174-.232-.334-.232H6.742a.354.354 0 0 0-.342.262l-.155.78A1.603 1.603 0 0 1 4.678 4.66a.5.5 0 0 1 0-1 .6.6 0 0 0 .587-.482l.162-.81a1.362 1.362 0 0 1 1.315-1.034h2.822c.612 0 1.15.412 1.308 1.003l.169.841a.6.6 0 0 0 .586.482.5.5 0 0 1 0 1z" fill="#111D37"/></svg>