<svg width="24" height="24" viewBox="0 0 24 24" fill="none" xmlns="http://www.w3.org/2000/svg"><rect width="24" height="24" rx="12" fill="#FC6733"/><path d="M8.926 17.116c0-.121-.023-.182-.07-.182l-.322.154c0-.065-.037-.112-.112-.14l-.112-.014a.592.592 0 0 0-.28.098.98.98 0 0 0-.07-.14 1.92 1.92 0 0 1-.07-.126c-.121-.233-.243-.49-.364-.77l-.322-.826a44.038 44.038 0 0 0-.224-.616 5.606 5.606 0 0 1-.126-.546c-.047-.243-.093-.55-.14-.924.103.065.182.098.238.098.065 0 .126-.098.182-.294.028.037.08.056.154.056.056 0 .098-.019.126-.056l.224-.336.252.084h.014c.019 0 .037-.01.056-.028a.326.326 0 0 1 .084-.056c.075-.047.13-.07.168-.07l.042.014c.233.112.383.317.448.616.168.71.336 1.064.504 1.064.168 0 .364-.177.588-.532.112-.177.224-.383.336-.616.121-.233.243-.495.364-.784.019.112.037.168.056.168.047 0 .126-.117.238-.35.121-.233.313-.555.574-.966.15-.252.336-.537.56-.854A56.922 56.922 0 0 1 13.42 8.31c.252-.299.476-.555.672-.77a3.23 3.23 0 0 1 .434-.42 4.88 4.88 0 0 0 .84-.7c-.01.065-.023.126-.042.182a.594.594 0 0 0-.014.098c0 .037.019.056.056.056l.392-.196v.056c0 .075.019.112.056.112.028 0 .084-.042.168-.126.084-.084.13-.145.14-.182l-.028.196.476-.28-.112.252c.15-.103.257-.154.322-.154.037 0 .065.023.084.07a.248.248 0 0 1 .028.112.385.385 0 0 1-.07.196 4.708 4.708 0 0 1-.182.266c-.056.075-.15.187-.28.336-.121.14-.308.35-.56.63-.252.27-.588.649-1.008 1.134a9.725 9.725 0 0 0-.518.644c-.233.299-.5.649-.798 1.05-.29.392-.579.789-.868 1.19-.29.401-.546.765-.77 1.092-.224.317-.383.555-.476.714l-.868 1.47c-.187.317-.34.579-.462.784a3.423 3.423 0 0 1-.28.406c-.14.168-.294.317-.462.448l-.126-.07-.112.07-.126.14z" fill="#fff"/></svg>