<svg width="24" height="24" viewBox="0 0 24 24" fill="none" xmlns="http://www.w3.org/2000/svg"><path d="M16.375 8.998h.875c.966 0 1.75.767 1.75 1.714v8.573c0 .947-.784 1.715-1.75 1.715H6.75C5.784 21 5 20.232 5 19.285v-8.573c0-.947.784-1.714 1.75-1.714h.875c.483 0 .875.383.875.857a.867.867 0 0 1-.875.857H6.75v8.573h10.5v-8.573h-.875a.867.867 0 0 1-.875-.857c0-.474.392-.857.875-.857zm-3.5-3.071v7.357a.866.866 0 0 1-.875.858.866.866 0 0 1-.875-.858V5.927l-.981.961a.888.888 0 0 1-1.238 0 .845.845 0 0 1 0-1.212l2.475-2.425a.888.888 0 0 1 1.238 0l2.475 2.425a.845.845 0 0 1 0 1.212.888.888 0 0 1-1.238 0l-.981-.961z" fill="#222" opacity=".6"/></svg>