<svg width="16" height="16" viewBox="0 0 16 16" fill="none" xmlns="http://www.w3.org/2000/svg"><path fill-rule="evenodd" clip-rule="evenodd" d="M8 2.05C4.72 2.05 2.05 4.72 2.05 8c0 3.281 2.67 5.95 5.95 5.95 3.28 0 5.95-2.669 5.95-5.95 0-3.28-2.67-5.95-5.95-5.95zM8 15c-3.86 0-7-3.14-7-7s3.14-7 7-7 7 3.14 7 7-3.14 7-7 7z" fill="#000"/><path fill-rule="evenodd" clip-rule="evenodd" d="M7.996 8.962a.525.525 0 0 1-.525-.525V5.343a.525.525 0 0 1 1.05 0v3.094c0 .29-.236.525-.525.525zm.007 2.395a.702.702 0 0 1-.704-.7c0-.387.31-.7.697-.7h.007a.7.7 0 1 1 0 1.4z" fill="#000"/></svg>