<svg width="16" height="16" viewBox="0 0 16 16" fill="none" xmlns="http://www.w3.org/2000/svg"><path d="M11.233 0H4.766A4.772 4.772 0 0 0 0 4.766v6.467A4.772 4.772 0 0 0 4.766 16h6.467A4.772 4.772 0 0 0 16 11.233V4.766A4.772 4.772 0 0 0 11.233 0zm3.157 11.233a3.157 3.157 0 0 1-3.157 3.157H4.766a3.157 3.157 0 0 1-3.156-3.157V4.766A3.157 3.157 0 0 1 4.766 1.61h6.467a3.157 3.157 0 0 1 3.157 3.156v6.467z" fill="#FC6733"/><path d="M8 3.861A4.143 4.143 0 0 0 3.862 8 4.143 4.143 0 0 0 8 12.138a4.143 4.143 0 0 0 4.139-4.139A4.143 4.143 0 0 0 8 3.861zm0 6.667a2.529 2.529 0 1 1 0-5.057 2.529 2.529 0 0 1 0 5.057zm4.147-5.644a.992.992 0 1 0 0-1.983.992.992 0 0 0 0 1.983z" fill="#FC6733"/></svg>