<svg width="22" height="14" viewBox="0 0 22 14" fill="none" xmlns="http://www.w3.org/2000/svg"><path fill-rule="evenodd" clip-rule="evenodd" d="M21.494 1.372c.154-.513 0-.872-.723-.872h-2.407c-.619 0-.894.325-1.049.684 0 0-1.22 2.977-2.957 4.892-.568.565-.809.736-1.118.736-.155 0-.378-.171-.378-.684V1.372c0-.615-.172-.872-.688-.872H8.39c-.378 0-.619.29-.619.547 0 .582.86.719.963 2.327v3.523c0 .77-.138.907-.447.907-.808 0-2.803-2.976-3.972-6.397C4.076.774 3.852.5 3.233.5H.825C.138.5 0 .825 0 1.184c0 .633.808 3.78 3.8 7.937 1.995 2.84 4.797 4.379 7.342 4.379 1.53 0 1.72-.342 1.72-.924v-2.155c0-.684.137-.821.636-.821.361 0 .963.171 2.39 1.54 1.633 1.624 1.909 2.36 2.82 2.36h2.407c.688 0 1.032-.342.826-1.01-.224-.666-.998-1.641-2.03-2.804-.567-.668-1.41-1.369-1.65-1.728-.361-.462-.258-.667 0-1.06 0-.018 2.94-4.123 3.233-5.526z" fill="#FC6733"/></svg>