<svg width="16" height="16" viewBox="0 0 16 16" fill="none" xmlns="http://www.w3.org/2000/svg"><path d="M2.948 10.046c0-3.201 2.21-5.796 4.935-5.796h.348c2.726 0 4.935 2.595 4.935 5.796 0 .32-.22.579-.493.579H3.441c-.272 0-.493-.26-.493-.58zM6.78 3.364C6.78 2.61 7.3 2 7.94 2h.232c.642 0 1.161.61 1.161 1.364 0 .075-.052.136-.116.136H6.896c-.064 0-.116-.061-.116-.136zM2.463 11.83c.1-.276.331-.455.587-.455H13c.265 0 .503.193.597.485l.361 1.125c.158.49-.15 1.015-.597 1.015H2.639c-.458 0-.767-.55-.587-1.045l.41-1.125z" fill="#256FFB"/></svg>