<svg width="16" height="17" viewBox="0 0 16 17" fill="none" xmlns="http://www.w3.org/2000/svg"><path fill-rule="evenodd" clip-rule="evenodd" d="M11.682 5.432v1.022c1.149.358 1.985 1.398 1.985 2.64v3.29c0 1.537-1.274 2.784-2.845 2.784H5.18c-1.572 0-2.846-1.246-2.846-2.783V9.093c0-1.241.837-2.28 1.985-2.64v-1.02c.007-1.988 1.653-3.598 3.671-3.598 2.046 0 3.692 1.61 3.692 3.598zM8.005 2.994c1.375 0 2.493 1.093 2.493 2.438v.878H5.504v-.892c.007-1.338 1.125-2.424 2.5-2.424zm.59 8.477a.586.586 0 0 1-.597.583.585.585 0 0 1-.59-.583v-1.47c0-.319.265-.577.59-.577.332 0 .596.258.596.576v1.471z" fill="#222" opacity=".6"/></svg>