<svg width="60" height="32" viewBox="0 0 60 32" fill="none" xmlns="http://www.w3.org/2000/svg"><path d="M8.783 8.442a3.38 3.38 0 0 1 1.536 1.255 3.52 3.52 0 0 1 .558 1.985c0 1.31-.47 2.34-1.409 3.087-.94.747-2.218 1.122-3.836 1.125-1.578 0-2.882-.387-3.913-1.16C.69 13.96.115 12.838 0 11.372h2.837c.208 1.232 1.121 1.848 2.739 1.848 1.644 0 2.466-.603 2.466-1.809a1.357 1.357 0 0 0-.51-1.14c-.338-.263-.918-.395-1.74-.395H3.815V7.42H5.44c1.448 0 2.172-.458 2.172-1.374 0-1.142-.756-1.712-2.27-1.711-.694 0-1.232.128-1.613.383-.385.255-.643.692-.772 1.307H.136C.273 4.61.821 3.528 1.78 2.78c.957-.747 2.176-1.12 3.656-1.12 1.49 0 2.696.373 3.62 1.12a3.536 3.536 0 0 1 1.39 2.89 3.104 3.104 0 0 1-.45 1.632c-.289.487-.71.882-1.213 1.14zm11.171-3.596h2.798v10.812h-2.798V11.49h-4.832v4.168h-2.798V4.846h2.798v3.99h4.832v-3.99zm12.677-.001h2.797l-.018 10.813h-2.798v-1.464a3.96 3.96 0 0 1-1.468 1.279 3.938 3.938 0 0 1-1.897.421 4.47 4.47 0 0 1-3.522-1.583c-.927-1.054-1.39-2.407-1.388-4.06.001-1.652.468-3.005 1.399-4.059a4.484 4.484 0 0 1 3.492-1.591 3.957 3.957 0 0 1 3.403 1.75V4.845zm-2.758 8.376a2.602 2.602 0 0 0 1.971-.826 2.982 2.982 0 0 0 .787-2.147c.03-.79-.252-1.56-.787-2.14a2.612 2.612 0 0 0-1.975-.824 2.537 2.537 0 0 0-1.956.824 3.03 3.03 0 0 0-.76 2.14 3.016 3.016 0 0 0 .772 2.143 2.566 2.566 0 0 0 1.948.83zm14.479-8.375h3.208v10.812h-2.798v-3.833l.177-3.204-4.441 7.037H37.27V4.846h2.797v3.833l-.138 3.166 4.423-7zM9.159 20.95h3.205v10.812h-2.79v-3.834l.196-3.695-3.355 4.837h-.077l-3.346-4.835.176 3.695v3.834H.371V20.95H3.6l2.779 3.855 2.78-3.857zm10.229-.245c1.76 0 3.152.609 4.175 1.828 1.023 1.218 1.463 2.732 1.322 4.542h-8.257c.092.837.391 1.479.9 1.926a2.782 2.782 0 0 0 1.897.67 2.932 2.932 0 0 0 1.468-.365c.408-.218.732-.568.92-.993h2.895a4.849 4.849 0 0 1-1.996 2.752 5.864 5.864 0 0 1-3.266.933c-1.665 0-3.028-.53-4.09-1.591-1.061-1.061-1.589-2.406-1.583-4.033 0-1.623.527-2.972 1.583-4.049 1.056-1.076 2.4-1.616 4.032-1.62zm-.02 2.321a2.558 2.558 0 0 0-1.666.54c-.452.374-.78.878-.939 1.445h5.145a2.664 2.664 0 0 0-.899-1.445 2.527 2.527 0 0 0-1.642-.532v-.008zm12.306 8.972a5.443 5.443 0 0 1-4.005-1.616 5.496 5.496 0 0 1-1.592-4.03 5.515 5.515 0 0 1 1.605-4.026c1.057-1.081 2.394-1.621 4.01-1.621a5.646 5.646 0 0 1 3.552 1.17 4.69 4.69 0 0 1 1.81 3.175h-2.876a2.219 2.219 0 0 0-.91-1.298 2.767 2.767 0 0 0-1.575-.452 2.61 2.61 0 0 0-2.036.837 3.1 3.1 0 0 0-.743 2.214 3.076 3.076 0 0 0 .754 2.203 2.603 2.603 0 0 0 2.006.836 2.808 2.808 0 0 0 1.584-.452c.46-.307.79-.777.92-1.317h2.87c-.21 1.376-.82 2.447-1.83 3.214a5.71 5.71 0 0 1-3.544 1.163zM47.228 20.95v2.653h-3.33v8.156h-2.795v-8.156h-3.305V20.95h9.43zm9.058 0h2.798l-.019 10.812h-2.8v-1.464a3.927 3.927 0 0 1-3.364 1.7 4.471 4.471 0 0 1-3.522-1.583c-.926-1.054-1.389-2.407-1.389-4.06 0-1.652.466-3.005 1.399-4.059a4.483 4.483 0 0 1 3.492-1.591 3.96 3.96 0 0 1 1.926.436 3.982 3.982 0 0 1 1.48 1.314v-1.506zm-2.76 8.375a2.607 2.607 0 0 0 1.978-.826 3.325 3.325 0 0 0 0-4.287 2.617 2.617 0 0 0-1.977-.824 2.542 2.542 0 0 0-1.957.824 3.039 3.039 0 0 0-.762 2.14 3.007 3.007 0 0 0 .773 2.143 2.557 2.557 0 0 0 1.946.83zM45.682 0h-6.554v2.123h6.554V0zm5.586 14.76a.635.635 0 0 1 .845 0 .572.572 0 0 1 0 .818.641.641 0 0 1-.845 0 .572.572 0 0 1-.126-.63.572.572 0 0 1 .126-.187zm3.858-2.862c.07 0 .14.005.209.012v.985a2.215 2.215 0 0 0-.234-.014 1.22 1.22 0 0 0-.816.263 1.094 1.094 0 0 0-.303.868v1.64h-.954v-3.675h.954v.642a1.176 1.176 0 0 1 1.144-.721zm3.004.079h.953v3.681h-.953v-.508a1.32 1.32 0 0 1-1.132.588 1.213 1.213 0 0 1-.956-.391 1.532 1.532 0 0 1-.35-1.06v-2.301h.954v2.091c-.015.2.04.399.156.563a.64.64 0 0 0 .516.186.76.76 0 0 0 .602-.235.978.978 0 0 0 .208-.681l.002-1.933z" fill="#fff"/></svg>