<svg width="16" height="16" viewBox="0 0 16 16" fill="none" xmlns="http://www.w3.org/2000/svg"><mask id="a" style="mask-type:alpha" maskUnits="userSpaceOnUse" x="1" y="1" width="14" height="14"><path fill-rule="evenodd" clip-rule="evenodd" d="M1.333 1.333h13.333v13.334H1.333V1.334z" fill="#fff"/></mask><g mask="url(#a)"><path fill-rule="evenodd" clip-rule="evenodd" d="M5.109 2.333c-1.686 0-2.776 1.156-2.776 2.944v5.446c0 1.788 1.09 2.944 2.776 2.944h5.779c1.688 0 2.778-1.155 2.778-2.944V5.277c0-1.788-1.09-2.944-2.777-2.944h-5.78zm5.779 12.334H5.109c-2.259 0-3.776-1.585-3.776-3.944V5.277c0-2.358 1.517-3.944 3.776-3.944h5.78c2.26 0 3.777 1.586 3.777 3.944v5.446c0 2.358-1.518 3.944-3.778 3.944z" fill="#FC6733"/></g><path fill-rule="evenodd" clip-rule="evenodd" d="M7.996 11.167a.5.5 0 0 1-.5-.5V8a.5.5 0 0 1 1 0v2.667a.5.5 0 0 1-.5.5zM8 6.136a.669.669 0 0 1-.67-.667c0-.368.294-.666.662-.666H8a.666.666 0 1 1 0 1.333z" fill="#FC6733"/></svg>