<svg width="17" height="17" viewBox="0 0 17 17" fill="none" xmlns="http://www.w3.org/2000/svg"><path fill-rule="evenodd" clip-rule="evenodd" d="M5.614 1.834h5.78c2.26 0 3.773 1.587 3.773 3.947v5.448c0 2.352-1.513 3.939-3.773 3.939h-5.78c-2.26 0-3.78-1.587-3.78-3.94V5.782c0-2.36 1.52-3.947 3.78-3.947zm2.507 8.66l3.166-3.166a.587.587 0 0 0 0-.827.587.587 0 0 0-.826 0L7.707 9.254 6.541 8.088a.587.587 0 0 0-.827 0 .587.587 0 0 0 0 .826l1.587 1.58a.57.57 0 0 0 .406.167c.154 0 .3-.053.414-.166z" fill="#1AA657"/></svg>