<svg width="111" height="20" viewBox="0 0 111 20" fill="none" xmlns="http://www.w3.org/2000/svg"><g clip-path="url(#a)"><path d="M96.168 5.373a4.19 4.19 0 0 0-3.038 1.281c-.83.855-1.257 1.922-1.257 3.156 0 .57.118 1.115.332 1.661a4.41 4.41 0 0 0 .902 1.424c.403.427.878.76 1.376.973a4 4 0 0 0 1.614.332c.45 0 .878-.071 1.305-.214.403-.118.972-.45 1.186-.806v.854h1.851V5.562h-1.875v.855c-.26-.427-.759-.712-1.162-.855a4.32 4.32 0 0 0-1.234-.19zm-9.682.024c-.427 0-.83.047-1.234.19-.403.142-.901.427-1.162.854v-.854h-1.875v11.651h1.85v-4.034c.214.356.784.664 1.187.806.403.143.854.214 1.305.214.617 0 1.092-.119 1.614-.332a4.163 4.163 0 0 0 1.376-.973c.38-.404.689-.878.902-1.424a4.419 4.419 0 0 0 .332-1.661c0-1.234-.427-2.302-1.258-3.156a4.15 4.15 0 0 0-3.037-1.281zm15.092.19l3.607 7.949-1.566 3.678h1.946l4.912-11.627h-1.97l-2.396 5.98-2.563-5.98h-1.97zM96.239 7.01c.664 0 1.258.214 1.756.712.498.522.688 1.282.688 2.017 0 .807-.166 1.566-.664 2.088s-1.092.712-1.804.712-1.281-.285-1.732-.736c-.498-.522-.736-1.21-.736-1.97 0-.806.238-1.541.736-2.064.427-.45 1.02-.735 1.756-.759zm-9.824.024c.712 0 1.329.285 1.756.76.499.521.736 1.233.736 2.064 0 .76-.237 1.447-.736 1.97a2.338 2.338 0 0 1-1.732.735c-.712 0-1.305-.19-1.803-.712-.475-.522-.665-1.305-.665-2.088 0-.76.19-1.495.688-2.017.475-.498 1.068-.712 1.756-.712zm-55.242-.522c-1.282 0-2.326.428-2.515 1.59-.048.309-.048.593.023.973.285 1.495 2.848 1.898 3.204 2.824.07.165.047.403.023.521-.071.238-.213.475-.712.475-.45 0-.712-.261-.712-.64v-.689h-1.922v.546c0 1.614 1.258 2.089 2.61 2.089 1.306 0 2.374-.451 2.54-1.638.095-.617.024-1.02 0-1.186-.308-1.495-3.038-1.946-3.228-2.8a1.01 1.01 0 0 1 0-.38c.048-.237.214-.474.665-.474.427 0 .665.26.665.64v.451h1.78v-.498c0-1.566-1.4-1.804-2.421-1.804zm45.038.047c-1.281 0-2.35.428-2.516 1.78 0 .119-.023.356-.023.475v3.013c0 .143 0 .238.023.475.12 1.305 1.258 1.78 2.516 1.78 1.281 0 2.42-.475 2.539-1.78.024-.237.024-.332.024-.475V9.905h-2.54v1.044h.736v1.044c0 .072 0 .19-.023.261-.048.19-.214.522-.736.522s-.712-.308-.712-.546a.881.881 0 0 1-.024-.26V8.694c0-.119 0-.237.024-.332.047-.166.19-.522.712-.522.546 0 .688.356.712.522.024.118.024.284.024.284v.404h1.803v-.237s0-.261-.024-.475c-.118-1.352-1.234-1.78-2.515-1.78zm-21.664.048c-1.258 0-2.302.404-2.492 1.566-.047.309-.071.593.024.95.26 1.447 2.776 1.85 3.132 2.776.07.165.047.38.023.521-.047.238-.213.475-.688.475-.45 0-.712-.261-.712-.64v-.689h-1.898v.546c0 1.59 1.258 2.065 2.586 2.065 1.282 0 2.35-.428 2.516-1.614.095-.617.024-1.02 0-1.163-.309-1.494-2.99-1.922-3.18-2.752a.682.682 0 0 1 0-.38c.048-.237.214-.474.64-.474.428 0 .665.26.665.64v.451h1.78v-.498c0-1.542-1.4-1.78-2.396-1.78zm-18.296.166l-1.329 7.166h1.922l.997-6.525h.024l.972 6.525h1.922l-1.328-7.166h-3.18zm6.098 0l-.166 7.166h1.803l.048-6.454h.047l1.187 6.454h1.827l1.186-6.454h.048l.047 6.454h1.804l-.166-7.166h-2.919l-.901 5.482h-.024l-.878-5.482h-2.943zm16.373 0v5.15c0 .142.024.402.024.474.119 1.352 1.163 1.78 2.491 1.78 1.33 0 2.398-.451 2.516-1.78 0-.072.024-.332.024-.475V6.773H61.95v5.268c0 .095 0 .213-.024.284-.024.19-.19.523-.688.523-.498 0-.641-.333-.665-.475-.024-.095-.024-.19-.024-.285V6.773h-1.827zm7.048 0v7.095h1.756l-.095-5.837h.047l1.757 5.837h2.563V6.773h-1.78l.094 5.624h-.023l-1.661-5.624H65.77z" fill="#211F1F"/><path d="M20.614 7.01c-.238-1.85-.902-3.536-2.065-4.77C17.315 1.079 15.631.414 13.78.177 12-.06 10.79.01 10.79.01S9.58-.037 7.8.176c-1.85.237-3.535.902-4.769 2.065C1.868 3.474 1.203 5.159.966 7.01.729 8.79.776 10 .776 10s-.047 1.21.166 2.99c.237 1.85.902 3.536 2.065 4.77 1.233 1.162 2.918 1.826 4.77 2.064 1.779.237 2.989.166 2.989.166s1.21.047 2.99-.166c1.85-.238 3.536-.902 4.77-2.065 1.162-1.233 1.827-2.918 2.064-4.77.237-1.779.166-2.989.166-2.989s.095-1.21-.142-2.99z" fill="#1E4BC6"/><path d="M4.479 7.081v5.244h.972v-1.494h.807c.285 0 .546-.048.76-.143.213-.095.427-.237.593-.403a1.75 1.75 0 0 0 .403-.593c.095-.238.143-.475.143-.736s-.048-.498-.143-.736a1.752 1.752 0 0 0-.403-.593 1.753 1.753 0 0 0-.593-.403 1.969 1.969 0 0 0-.76-.143h-1.78zm.949.879h.76c.142 0 .284.023.403.07a.902.902 0 0 1 .308.214c.071.095.142.19.19.309a.983.983 0 0 1 .071.38c0 .142-.024.26-.071.379a.904.904 0 0 1-.498.522c-.12.048-.261.071-.404.071h-.76V7.96zm4.983.142a2.18 2.18 0 0 0-.783.142c-.237.095-.475.213-.665.403-.19.19-.355.404-.474.665s-.166.57-.166.902c0 .332.07.64.19.901.118.261.284.475.474.665.19.166.427.308.665.403.26.095.498.142.759.142.285 0 .522-.046.76-.142.237-.119.45-.26.593-.45v.592h.973V8.102h-.973v.545a1.753 1.753 0 0 0-.593-.403 1.887 1.887 0 0 0-.76-.142zm2.658.023l1.708 4.01-.878 2.113h.997l2.491-6.123h-1.02l-1.092 2.872-1.186-2.872h-1.02zm-2.492.879a.96.96 0 0 1 .498.118c.167.072.285.143.404.261.118.095.19.238.26.38.072.142.096.308.096.475 0 .165-.024.331-.095.474a1.4 1.4 0 0 1-.261.38 1.47 1.47 0 0 1-.404.261 1.1 1.1 0 0 1-.498.095c-.19 0-.356-.048-.498-.095a1.479 1.479 0 0 1-.404-.261 2.327 2.327 0 0 1-.26-.404 1.062 1.062 0 0 1-.096-.474c0-.166.024-.332.095-.475a.993.993 0 0 1 .261-.38c.119-.118.237-.19.403-.26a1.25 1.25 0 0 1 .5-.095z" fill="#fff"/></g><defs><clipPath id="a"><path fill="#fff" transform="translate(.771)" d="M0 0h109.705v20H0z"/></clipPath></defs></svg>