<svg width="51" height="20" viewBox="0 0 51 20" fill="none" xmlns="http://www.w3.org/2000/svg"><g clip-path="url(#a)"><path d="M9.266 2.579c-.586.675-1.524 1.208-2.461 1.132-.117-.914.342-1.884.879-2.484C8.27.533 9.295.038 10.125 0c.098.951-.283 1.884-.86 2.579zm.85 1.313c-1.358-.077-2.52.751-3.165.751-.654 0-1.64-.713-2.715-.694-1.396.019-2.695.79-3.408 2.017-1.465 2.455-.38 6.09 1.035 8.087.694.99 1.524 2.075 2.618 2.036 1.035-.038 1.445-.656 2.695-.656 1.26 0 1.621.656 2.715.637 1.133-.019 1.845-.99 2.539-1.979.79-1.122 1.113-2.217 1.133-2.274-.02-.019-2.188-.828-2.207-3.263-.02-2.036 1.709-3.007 1.787-3.064-.977-1.408-2.5-1.56-3.028-1.598zm7.841-2.76v14.834h2.363v-5.072h3.272c2.988 0 5.088-1.998 5.088-4.89 0-2.893-2.06-4.872-5.01-4.872h-5.713zm2.363 1.941h2.725c2.05 0 3.223 1.066 3.223 2.94 0 1.875-1.172 2.95-3.233 2.95H20.32v-5.89zM32.996 16.08c1.485 0 2.862-.733 3.487-1.893h.048v1.779h2.188V8.582c0-2.14-1.758-3.52-4.463-3.52-2.51 0-4.365 1.399-4.434 3.32h2.13c.175-.913 1.044-1.512 2.236-1.512 1.445 0 2.255.656 2.255 1.865v.818l-2.949.171c-2.744.162-4.228 1.256-4.228 3.159 0 1.922 1.533 3.197 3.73 3.197zm.635-1.76c-1.26 0-2.06-.59-2.06-1.494 0-.933.77-1.475 2.245-1.56l2.627-.162v.837c0 1.39-1.21 2.379-2.812 2.379zM41.639 20c2.304 0 3.389-.856 4.336-3.454l4.15-11.341h-2.402l-2.783 8.763h-.05l-2.782-8.763h-2.471l4.004 10.799-.215.656c-.361 1.114-.947 1.542-1.992 1.542a8 8 0 0 1-.694-.038v1.779c.137.038.723.057.899.057z" fill="#000"/></g><defs><clipPath id="a"><path fill="#fff" transform="translate(.125)" d="M0 0h50v20H0z"/></clipPath></defs></svg>