<svg width="51" height="20" viewBox="0 0 51 20" fill="none" xmlns="http://www.w3.org/2000/svg"><g clip-path="url(#a)"><path d="M24.014 9.77v5.863h-1.86V1.155h4.933a4.46 4.46 0 0 1 3.194 1.254 4.028 4.028 0 0 1 1.334 3.055 4.012 4.012 0 0 1-1.334 3.073c-.862.822-1.927 1.233-3.194 1.232h-3.073v.002zm0-6.832v5.054h3.12a2.458 2.458 0 0 0 1.84-.749 2.468 2.468 0 0 0 0-3.538 2.426 2.426 0 0 0-1.84-.769h-3.12v.002zm11.887 2.466c1.375 0 2.46.367 3.255 1.102.796.735 1.193 1.742 1.193 3.022v6.105h-1.78V14.26h-.08c-.77 1.132-1.795 1.698-3.073 1.698-1.091 0-2.005-.324-2.74-.97a3.097 3.097 0 0 1-1.101-2.427c0-1.024.387-1.84 1.162-2.445.775-.605 1.809-.909 3.103-.91 1.104 0 2.014.202 2.728.606v-.425A2.117 2.117 0 0 0 37.8 7.74a2.634 2.634 0 0 0-1.795-.678c-1.039 0-1.861.438-2.466 1.314L31.9 7.345c.902-1.294 2.235-1.941 4.001-1.941zm-2.406 7.197a1.485 1.485 0 0 0 .617 1.213c.41.323.921.495 1.445.485a2.965 2.965 0 0 0 2.092-.869c.616-.58.924-1.26.924-2.04-.58-.463-1.389-.694-2.426-.694-.755 0-1.386.182-1.89.546-.51.37-.762.82-.762 1.359zM50.56 5.728L44.35 20h-1.92l2.304-4.994-4.084-9.278h2.022l2.952 7.116h.04l2.87-7.116h2.026z" fill="#5F6368"/><path d="M16.499 8.507c0-.567-.047-1.133-.143-1.691H8.511v3.203h4.492a3.85 3.85 0 0 1-1.66 2.528v2.079h2.68c1.57-1.447 2.475-3.588 2.475-6.12z" fill="#4285F4"/><path d="M8.511 16.635c2.245 0 4.135-.737 5.513-2.008l-2.681-2.08c-.746.507-1.707.796-2.832.796-2.169 0-4.01-1.463-4.669-3.434H1.08v2.143a8.317 8.317 0 0 0 7.431 4.583z" fill="#34A853"/><path d="M3.841 9.91a4.984 4.984 0 0 1 0-3.184V4.583H1.08a8.317 8.317 0 0 0 0 7.47l2.762-2.144z" fill="#FBBC04"/><path d="M8.511 3.292a4.516 4.516 0 0 1 3.191 1.248l2.374-2.374A7.992 7.992 0 0 0 8.511 0a8.317 8.317 0 0 0-7.43 4.583l2.761 2.143c.659-1.971 2.5-3.434 4.67-3.434z" fill="#EA4335"/></g><defs><clipPath id="a"><path fill="#fff" transform="translate(.193)" d="M0 0h50.363v20H0z"/></clipPath></defs></svg>