<svg width="16" height="16" viewBox="0 0 16 16" fill="none" xmlns="http://www.w3.org/2000/svg"><path d="M7.987 7.998h.003L8.032 8C9.67 8 11 6.654 11 5a2.988 2.988 0 0 0-2.984-2.998h-.003L7.968 2C6.33 2 5 3.346 5 5a2.99 2.99 0 0 0 2.987 2.998zM7.955 2.76h.077c1.222 0 2.216 1.005 2.216 2.24 0 1.235-.994 2.24-2.216 2.24h-.064C6.746 7.24 5.752 6.235 5.752 5c0-1.235.994-2.24 2.203-2.24zm3.225 5.797a2.163 2.163 0 0 0-.668-.108H5.487c-.218 0-.442.036-.667.108-.79.252-1.32.92-1.32 1.663V14h9v-3.78c0-.743-.53-1.411-1.32-1.663zm.38 4.606H4.44V10.22c0-.39.28-.742.697-.875.124-.039.24-.058.351-.058h5.025c.112 0 .227.019.351.058.417.133.697.484.696.875v2.943z" fill="#222"/></svg>