<svg width="20" height="20" viewBox="0 0 20 20" fill="none" xmlns="http://www.w3.org/2000/svg"><path fill-rule="evenodd" clip-rule="evenodd" d="M17.223 8.254H2.369a.625.625 0 0 1 0-1.25h14.854a.625.625 0 0 1 0 1.25zm-3.722 3.254a.628.628 0 0 1-.628-.625c0-.345.276-.625.62-.625h.008a.625.625 0 0 1 0 1.25zm-3.698 0a.628.628 0 0 1-.628-.625c0-.345.276-.625.62-.625h.008a.625.625 0 0 1 0 1.25zm-3.705 0a.629.629 0 0 1-.63-.625c0-.345.277-.625.622-.625h.008a.625.625 0 0 1 0 1.25zm7.403 3.239a.628.628 0 0 1-.628-.625c0-.345.276-.625.62-.625h.008a.625.625 0 0 1 0 1.25zm-3.698 0a.628.628 0 0 1-.628-.625c0-.345.276-.625.62-.625h.008a.625.625 0 0 1 0 1.25zm-3.705 0a.629.629 0 0 1-.63-.625c0-.345.277-.625.622-.625h.008a.625.625 0 0 1 0 1.25zm7.063-9.921a.625.625 0 0 1-.625-.625V1.459a.625.625 0 0 1 1.25 0V4.2c0 .345-.28.625-.625.625zm-6.731 0a.625.625 0 0 1-.625-.625V1.459a.625.625 0 0 1 1.25 0V4.2c0 .345-.28.625-.625.625z" fill="#FC6733"/><mask id="a" style="mask-type:alpha" maskUnits="userSpaceOnUse" x="1" y="2" width="17" height="17"><path fill-rule="evenodd" clip-rule="evenodd" d="M1.667 2.15h16.25v16.6H1.667V2.15z" fill="#fff"/></mask><g mask="url(#a)"><path fill-rule="evenodd" clip-rule="evenodd" d="M6.268 3.4c-2.161 0-3.351 1.152-3.351 3.244v7.541c0 2.139 1.19 3.315 3.35 3.315h7.05c2.16 0 3.35-1.155 3.35-3.251V6.644c.003-1.029-.273-1.829-.823-2.379-.564-.566-1.435-.866-2.52-.866H6.268zm7.048 15.35H6.268c-2.838 0-4.601-1.749-4.601-4.565v-7.54c0-2.774 1.763-4.496 4.6-4.496h7.057c1.424 0 2.601.427 3.406 1.233.78.784 1.191 1.912 1.187 3.264v7.603c0 2.776-1.763 4.501-4.6 4.501z" fill="#FC6733"/></g></svg>