<svg width="20" height="20" xmlns="http://www.w3.org/2000/svg" stroke="null"><title>Layer 1</title><g fill="#256FFB"><path d="M15.883 5.856c-.315-.544-.744-.83-1.26-.859a1.932 1.932 0 0 0-.887.143c-.2.058-.373.172-.544.258-.115-.086-.23-.172-.372-.229L9.9 4.081a1.246 1.246 0 0 0-1.318.286l-5.668 5.726c-.487.487-.487 1.289 0 1.747l4.008 4.008c.229.229.544.372.887.372.344 0 .659-.143.888-.372l5.697-5.697c.344-.344.458-.859.286-1.317l-1.088-2.92c0-.029-.028-.029-.028-.058a4.05 4.05 0 0 1 .515-.229c.172-.057.344-.086.515-.057.344.029.602.23.83.601.115.2.144.401.087.602-.115.286-.401.572-.716.801l.2.544c.401-.258.888-.658 1.03-1.145.115-.4.087-.745-.142-1.117zm-5.926 3.35l-.23.23c.115.17.172.4.172.629 0 .315-.114.63-.343.859a.31.31 0 0 1-.2.086.26.26 0 0 1-.201-.086.277.277 0 0 1 0-.401.65.65 0 0 0 .172-.458.702.702 0 0 0-.172-.458.66.66 0 0 0-.887 0 .65.65 0 0 0-.172.458c0 .172.057.315.171.458.23.23.344.515.344.859 0 .315-.114.63-.344.859a1.212 1.212 0 0 1-.858.343c-.23 0-.43-.057-.63-.171l-.23.2a.31.31 0 0 1-.2.086.26.26 0 0 1-.2-.086.277.277 0 0 1 0-.4l.229-.23c-.115-.2-.172-.4-.172-.63 0-.315.115-.63.344-.859a.277.277 0 0 1 .4 0 .277.277 0 0 1 0 .401.65.65 0 0 0-.171.458c0 .172.057.315.172.458a.631.631 0 0 0 .429.172.583.583 0 0 0 .43-.172.676.676 0 0 0 .2-.458.61.61 0 0 0-.2-.458 1.4 1.4 0 0 1-.344-.859c0-.343.114-.63.343-.859.23-.229.544-.343.86-.343.228 0 .429.057.63.172l.228-.23a.277.277 0 0 1 .401 0c.115.144.115.316.029.43zm2.805-2.061c0 .315-.114.6-.343.83a1.147 1.147 0 0 1-.83.344c-.315 0-.602-.115-.83-.344a1.147 1.147 0 0 1-.344-.83c0-.315.114-.602.343-.83.23-.23.516-.344.83-.344a1.2 1.2 0 0 1 .602.172c-.172.143-.315.315-.458.43-.058 0-.086-.03-.143-.03a.583.583 0 0 0-.43.172.583.583 0 0 0-.172.43c0 .143.058.315.172.43a.588.588 0 0 0 1.002-.43c0-.058 0-.115-.028-.172.114-.115.286-.258.429-.4.143.142.2.343.2.572z"/><path d="M9.957 9.206l-.23.23c.115.17.172.4.172.629 0 .315-.114.63-.343.859a.31.31 0 0 1-.2.086.26.26 0 0 1-.201-.086.277.277 0 0 1 0-.401.65.65 0 0 0 .172-.458.702.702 0 0 0-.172-.458.66.66 0 0 0-.887 0 .65.65 0 0 0-.172.458c0 .172.057.315.171.458.23.23.344.515.344.859 0 .315-.114.63-.344.859a1.212 1.212 0 0 1-.858.343c-.23 0-.43-.057-.63-.171l-.23.2a.31.31 0 0 1-.2.086.26.26 0 0 1-.2-.086.277.277 0 0 1 0-.4l.229-.23c-.115-.2-.172-.4-.172-.63 0-.315.115-.63.344-.859a.277.277 0 0 1 .4 0 .277.277 0 0 1 0 .401.65.65 0 0 0-.171.458c0 .172.057.315.172.458a.631.631 0 0 0 .429.172.583.583 0 0 0 .43-.172.676.676 0 0 0 .2-.458.61.61 0 0 0-.2-.458 1.165 1.165 0 0 1-.344-.859c0-.343.114-.63.343-.859.23-.229.544-.343.86-.343.228 0 .429.057.63.172l.228-.23a.277.277 0 0 1 .401 0c.115.144.115.316.029.43z"/></g><path d="M8.927 11.06c0 .212-.425.425-.425.638v.85c0 .426-.065 1.18.213 1.065.393-.163 0-.851 0-1.277 0-.638.146-1.72 0-2.34-.11-.463 0-.851-.213-.851s.049.43 0 .638c-.219.926-.181 1.75-.426 2.34-.23.556-.344.197-.425 0-.23-.556-.426-.638-.639-.638h-.638c-.213 0-.94-.125-.638-.426.15-.15.425-.425.638-.425.213 0 .488-.15.638 0 .15.15.098.36.213.638.082.197 0 .426 0 .638 0 .213 0 .426-.213.426H6.8l.212-.213m2.48-.955c-.02 0-.007-.14-.06-.508-.05-.35-.112-.698-.122-1.015-.004-.1-.02 0-.02.101v.71l.02.204.02.304h.02" stroke="#256ffb" fill="none"/><path d="M7.97 8.528c0 .203-.089.318 0 .61.212.7.563 1.01.913 1.116.195.059.07-1.28-.913-1.726-.093-.042-.48-.172-1.117.203-.124.073-.102.406-.102.71 0 .204-.09.467.406 1.117.088.114.205.118.305.102.317-.052.456-.495.508-.812.016-.1-.008-.344-.102-.305-.133.055-.253.394-.305.71-.048.301-.101.508 0 .508.203 0 .1-.275.204-.812.076-.399-.008-.648-.102-.609-.133.055-.266.225-.508.61-.617.979-.71 1.116-.71 1.319 0 .203-.047.375-.102.508-.078.187.05.388.102.609.023.099.131.173.203.101.143-.143.143-.442 0-.71-.173-.323-.412-.25-.61-.203-.22.052-.429.307-.405.406.052.22.304.203 1.42.203.813 0 1.465.181 1.828 0 .454-.227.508-.406.508-.508 0-.101.15-.287.203-.507.047-.198 0-.305 0-.508v-.61c0-.202.037-.306 0-.608-.051-.416-.156-.412-.203-.61-.052-.22-.185-.66-.406-.609-.099.024.101.203.304.508.203.305.383.51.406.61.053.22.233.274.305.202.072-.072-.072-.334 0-.406.072-.072.131.131.203.203.144.144 0 .406 0 .71 0 .305-.101.711-.101.813 0 .203-.102.203-.204.203-.101 0-.252-.084-.304-.305-.047-.197-.102-.406-.102-.609v-.71c0 .203-.173.918-.304 1.726-.083.51-.131.638-.203.71-.072.072-.29-.312-.508-.71-.285-.52-.403-1.183-.507-1.625-.094-.395.032-.72-.102-1.117-.247-.732-.445-1.21-.71-1.32-.188-.077-.355.084-.407.305-.093.395 0 .914 0 1.32s.242.647.508 1.015c.084.117.4.624.609.71.297.124.527.162.61.102.26-.187.353-.59.405-.812.047-.197 0-.507 0-.609 0-.203-.046-.273-.101-.406a.417.417 0 0 0-.305-.203c-.101 0-.355.092-.406.508-.037.302.02.597.203.913.114.197.305.406.508.508.609.304 1.146.58 1.218.507.072-.071 0-.304 0-.507 0-.305.031-.425-.102-.61-.083-.116-.175-.226-.609-.71-.191-.214-.28-.307-.304-.406-.052-.221-.172-.323-.305-.508-.084-.116-.203-.101-.304-.101-.102 0-.224.184-.406.406-.233.283-.407.812-.407 1.015 0 .406.05.803.102 1.218.025.202.104.342.406.305.416-.051.747-.716.812-1.117.052-.317.218-.454.305-.507.193-.12.101-.508.101-.711v-.508c0-.101.203-.507 0-.507-.101 0 0 .203 0 .507v1.523c0 .406-.021.672-.101.61-.66-.516-.558-1.617-.61-2.133-.06-.606-.049-.997-.1-1.218-.024-.099-.063.081-.204.61a5.37 5.37 0 0 1-.71 1.624c-.232.348-.063.515-.102.609-.055.132-.067 0 .812-.508.67-.387 1.26-.77 1.117-.914-.144-.143-.344-.035-.61.305-.364.467-.455.597-.507.914-.032.2 0 .507 0 .71l.203.203" stroke="#256ffb" fill="none"/></svg>