<svg width="40" height="40" viewBox="0 0 40 40" fill="none" xmlns="http://www.w3.org/2000/svg"><rect width="40" height="40" rx="20" fill="#fff"/><path d="M32.215 18.055l-1.366-1.531.19-2.035a2.928 2.928 0 0 0-.565-1.99 3.01 3.01 0 0 0-1.75-1.142l-2.017-.445L25.65 9.16a2.994 2.994 0 0 0-1.649-1.287 3.045 3.045 0 0 0-2.102.095l-1.9.794-1.899-.794a3.04 3.04 0 0 0-2.103-.097 2.99 2.99 0 0 0-1.648 1.289l-1.057 1.754-2.018.444a3.01 3.01 0 0 0-1.75 1.142 2.928 2.928 0 0 0-.565 1.99l.19 2.035-1.365 1.531a2.926 2.926 0 0 0-.739 1.94c0 .714.263 1.404.74 1.941l1.364 1.532-.19 2.034c-.06.709.14 1.416.565 1.99a3.01 3.01 0 0 0 1.75 1.143l2.018.444 1.057 1.754a3.015 3.015 0 0 0 2.576 1.44 2.985 2.985 0 0 0 1.175-.246l1.9-.794 1.899.794a3.041 3.041 0 0 0 2.102.097 2.989 2.989 0 0 0 1.649-1.29l1.057-1.753 2.018-.444a3.01 3.01 0 0 0 1.75-1.142 2.928 2.928 0 0 0 .564-1.99l-.19-2.035 1.366-1.531c.477-.538.74-1.228.74-1.942s-.263-1.404-.74-1.942zM19.999 28.904c-2.399 0-4.7-.939-6.396-2.61a8.84 8.84 0 0 1-2.65-6.298 8.84 8.84 0 0 1 2.65-6.299 9.117 9.117 0 0 1 6.396-2.61c2.4 0 4.7.94 6.397 2.61a8.84 8.84 0 0 1 2.65 6.3 8.853 8.853 0 0 1-2.654 6.294A9.13 9.13 0 0 1 20 28.904zm0-16.647a7.921 7.921 0 0 0-5.557 2.267 7.68 7.68 0 0 0-2.302 5.472c0 2.053.829 4.02 2.302 5.473A7.92 7.92 0 0 0 20 27.735a7.92 7.92 0 0 0 5.557-2.266 7.68 7.68 0 0 0 2.302-5.473 7.689 7.689 0 0 0-2.304-5.47A7.93 7.93 0 0 0 20 12.259v-.001zm3.42 6.032l-3.966 4.606a.59.59 0 0 1-.45.21h-.013a.597.597 0 0 1-.463-.233l-1.959-2.537a.578.578 0 0 1 .13-.79.6.6 0 0 1 .808.077l1.52 1.964 3.478-4.045a.6.6 0 0 1 .837-.076.579.579 0 0 1 .077.824z" fill="#FC6733"/></svg>