<svg width="24" height="24" viewBox="0 0 24 24" fill="none" xmlns="http://www.w3.org/2000/svg"><path d="M17.149 7.123l-2.204-3.266a1.82 1.82 0 0 0-.633-.578 1.767 1.767 0 0 0-.821-.217L9.309 3H9.3c-2.16 0-3.816.37-4.883 2.179C3.424 6.862 3 9.73 3 14.767v.616h1.37L3.489 20h1.223l.883-4.617H6a3.682 3.682 0 0 0 2.628-1.077c.637-.625 1.096-1.48 1.329-2.473l.002-.01 1.029-5.059H9.762l-.974 4.79C8.49 12.812 7.604 14.152 6 14.152H4.202c.033-4.358.42-6.942 1.242-8.336.69-1.17 1.698-1.584 3.852-1.585l4.178.062a.59.59 0 0 1 .484.265l2.493 3.694 3.349.573v.652l-.558 3.056c-.165.902-.447 1.356-1.602 1.499l-4.737.831L12.872 20h1.2l.025-4.097 3.701-.65c.839-.106 1.457-.384 1.891-.848.37-.397.597-.904.732-1.645L21 9.592v-1.81l-3.851-.659z" fill="#FC6733"/></svg>