<svg width="24" height="24" viewBox="0 0 24 24" fill="none" xmlns="http://www.w3.org/2000/svg"><path d="M6.97 2a.625.625 0 0 0-.243 1.191s.273.164.273.38c0 .155-.03.198-.137.313-.106.115-.308.256-.547.43-.205.149-.471.314-.722.585a1.76 1.76 0 0 0-.469 1.171c0 1.043.977 1.494.977 1.494a.625.625 0 1 0 .546-1.123s-.273-.154-.273-.37c0-.155.03-.208.137-.323.106-.115.308-.256.547-.43.205-.149.471-.314.722-.585.251-.27.469-.682.469-1.161 0-1.043-.977-1.503-.977-1.503A.625.625 0 0 0 6.971 2zm3.75 0a.625.625 0 0 0-.243 1.191s.273.164.273.38c0 .155-.03.198-.137.313-.106.115-.308.256-.547.43-.205.149-.471.314-.722.585a1.76 1.76 0 0 0-.469 1.171c0 1.043.977 1.494.977 1.494a.626.626 0 1 0 .546-1.123s-.273-.154-.273-.37c0-.155.03-.208.137-.323.106-.115.308-.256.547-.43.205-.149.471-.314.722-.585.251-.27.469-.682.469-1.161 0-1.043-.977-1.503-.977-1.503A.625.625 0 0 0 10.721 2zm3.75 0a.625.625 0 0 0-.243 1.191s.273.164.273.38c0 .155-.03.198-.137.313-.106.115-.308.256-.547.43-.205.149-.471.314-.722.585a1.76 1.76 0 0 0-.469 1.171c0 1.043.977 1.494.977 1.494a.625.625 0 1 0 .546-1.123s-.273-.154-.273-.37c0-.155.03-.208.137-.323.106-.115.308-.256.547-.43.205-.149.471-.314.722-.585.251-.27.469-.682.469-1.161 0-1.043-.977-1.503-.977-1.503A.625.625 0 0 0 14.471 2zM2.567 8.881A.625.625 0 0 0 2 9.506c0 3.477 1.664 6.611 4.375 8.16v1.522a.625.625 0 0 0 .625.625h6.875a.625.625 0 0 0 .625-.625v-1.522a7.91 7.91 0 0 0 1.68-1.289h3.32c1.374 0 2.5-1.125 2.5-2.498V11.38a2.508 2.508 0 0 0-2.5-2.499H2.566zm.762 1.25h14.219c-.198 2.94-1.684 5.475-3.955 6.617a.625.625 0 0 0-.342.566v1.25H7.625v-1.25a.624.624 0 0 0-.342-.566c-2.27-1.142-3.757-3.677-3.955-6.617zm15.527 0h.645c.703 0 1.25.546 1.25 1.249v2.499c0 .703-.547 1.249-1.25 1.249h-2.285c.958-1.414 1.534-3.144 1.64-4.997zM3.191 20.75a.628.628 0 0 0-.595.654.625.625 0 0 0 .654.595h14.375a.626.626 0 1 0 0-1.25H3.191z" fill="#FC6733"/></svg>