<svg width="20" height="20" viewBox="0 0 20 20" fill="none" xmlns="http://www.w3.org/2000/svg"><path d="M9.984 9.998h.004l.052.002c2.046 0 3.71-1.682 3.71-3.75a3.735 3.735 0 0 0-3.73-3.747h-.004L9.959 2.5C7.914 2.5 6.25 4.182 6.25 6.25a3.737 3.737 0 0 0 3.734 3.748zm-.04-6.549h.096c1.528 0 2.77 1.257 2.77 2.8 0 1.544-1.243 2.8-2.77 2.8h-.08c-1.527 0-2.77-1.256-2.77-2.8 0-1.543 1.242-2.8 2.753-2.8zm4.031 7.247a2.705 2.705 0 0 0-.835-.135H6.86c-.273 0-.554.045-.835.135-.987.315-1.65 1.15-1.65 2.079V17.5h11.249l.001-4.725c0-.929-.663-1.764-1.65-2.08zm.475 5.757h-8.9v-3.678c0-.488.35-.927.87-1.093.156-.05.3-.074.44-.074h6.281c.14 0 .284.024.439.073.521.167.87.606.87 1.094v3.678z" fill="#FC6733"/></svg>