<svg width="24" height="24" viewBox="0 0 24 24" fill="none" xmlns="http://www.w3.org/2000/svg"><path d="M21.406 9.125H3.594A.593.593 0 0 0 3 9.719v10.687a.594.594 0 0 0 1.188 0v-5.343h1.187v5.343a.594.594 0 0 0 1.188 0v-5.343h11.875v5.343a.594.594 0 0 0 1.187 0v-5.343h1.188v5.343a.594.594 0 0 0 1.187 0V9.72a.593.593 0 0 0-.594-.594zM4.188 10.313h16.625v3.562H4.188v-3.563zM9.503 2a.562.562 0 0 0-.363.155.675.675 0 0 0-.2.37.722.722 0 0 0 .052.429.62.62 0 0 0 .28.3s.26.173.26.401c0 .163-.03.208-.13.329-.102.121-.294.27-.52.452-.195.158-.448.332-.687.617a1.964 1.964 0 0 0-.445 1.233c0 1.099.928 1.573.928 1.573a.552.552 0 0 0 .463.047.581.581 0 0 0 .207-.13.665.665 0 0 0 .145-.208.715.715 0 0 0-.102-.74.598.598 0 0 0-.194-.151s-.26-.163-.26-.39c0-.163.029-.219.13-.34.102-.12.294-.27.52-.452.195-.157.448-.332.686-.617.24-.285.446-.718.446-1.223 0-1.098-.928-1.583-.928-1.583A.547.547 0 0 0 9.503 2zm3.563 0a.562.562 0 0 0-.364.155.675.675 0 0 0-.2.37.722.722 0 0 0 .052.429c.06.132.159.238.28.3 0 0 .26.173.26.401 0 .163-.029.208-.13.329-.101.121-.293.27-.52.452-.195.158-.448.332-.686.617a1.964 1.964 0 0 0-.445 1.233c0 1.099.927 1.573.927 1.573a.553.553 0 0 0 .464.047.581.581 0 0 0 .207-.13.646.646 0 0 0 .144-.208.715.715 0 0 0-.101-.74.599.599 0 0 0-.194-.151s-.26-.163-.26-.39c0-.163.028-.219.13-.34.101-.12.293-.27.52-.452.194-.157.447-.332.686-.617a1.93 1.93 0 0 0 .445-1.223c0-1.098-.928-1.583-.928-1.583A.547.547 0 0 0 13.066 2zm3.562 0a.562.562 0 0 0-.363.155.675.675 0 0 0-.2.37.722.722 0 0 0 .052.429.62.62 0 0 0 .28.3s.26.173.26.401c0 .163-.03.208-.13.329-.102.121-.294.27-.52.452-.195.158-.448.332-.687.617a1.964 1.964 0 0 0-.445 1.233c0 1.099.928 1.573.928 1.573a.553.553 0 0 0 .463.047.581.581 0 0 0 .207-.13.665.665 0 0 0 .145-.208.715.715 0 0 0-.102-.74.599.599 0 0 0-.194-.151s-.26-.163-.26-.39c0-.163.029-.219.13-.34.102-.12.294-.27.52-.452.195-.157.448-.332.686-.617.24-.285.446-.718.446-1.223 0-1.098-.928-1.583-.928-1.583A.547.547 0 0 0 16.628 2z" fill="#FC6733"/></svg>