<svg width="42" height="53" viewBox="0 0 42 53" fill="none" xmlns="http://www.w3.org/2000/svg"><path d="M33.21 15.7h-6.506c.043.193.087.376.122.568.017.095.043.2.06.305.036.192.062.41.096.62l.027.217v.035c.008.079.017.149.026.227a15.781 15.781 0 0 1-1.806 8.993l-.122.218a13.56 13.56 0 0 1-.95 1.491c-.183.253-.367.489-.541.716-.149.183-.297.357-.445.523-.14.157-.27.305-.428.454-.27.296-.567.584-.872.854v15.31c0 4.5 2.25 6.105 4.361 6.105h1.745V35.763c0-.48.392-.872.872-.872s.872.392.872.872v16.573h1.745c2.11 0 4.361-1.605 4.361-6.106V34.42a3.478 3.478 0 0 0 1.745.47 3.488 3.488 0 0 0 3.489-3.489v-7.85c0-4.326-3.524-7.85-7.85-7.85zm-21.039 8.672a5.166 5.166 0 0 0 2.129-.82c.192-.123.384-.27.558-.428a4.32 4.32 0 0 0 .445-.445 4.169 4.169 0 0 0 .602-.829 5.2 5.2 0 0 0 .724-2.87 4.418 4.418 0 0 0-.166-1.072 3.27 3.27 0 0 0-.13-.462 3.17 3.17 0 0 1-.08-.166 5.086 5.086 0 0 0-.34-.69c0-.008-.008-.008-.008-.017a5.024 5.024 0 0 0-.663-.872h-2.966a4.364 4.364 0 0 0-4.361 4.361 4.346 4.346 0 0 0 4.073 4.344 1.49 1.49 0 0 1 .184-.035zm2.722 24.475a3.49 3.49 0 1 1-6.979 0 3.49 3.49 0 0 1 6.98 0zm10.215-37.281c1.169 1.395 2.573 2.39 3.742 2.39 2.512 0 6.106-4.623 6.106-7.85A6.113 6.113 0 0 0 28.85 0a6.113 6.113 0 0 0-6.106 6.106c0 1.055.384 2.268.995 3.41.383.725.854 1.422 1.369 2.05z" fill="#FC6733"/><path d="M22.743 27.354a12.6 12.6 0 0 0 .872-1.378c.027-.043.053-.096.08-.14a14.01 14.01 0 0 0 1.595-8.042c-.009-.122-.026-.235-.035-.349a13.837 13.837 0 0 0-.148-.872c-.052-.297-.122-.584-.192-.872C23.397 9.874 18.18 5.487 11.97 5.243a13.964 13.964 0 0 0-9.874 3.55 3.475 3.475 0 0 0-1.152 2.399 3.49 3.49 0 0 0 5.81 2.8 6.878 6.878 0 0 1 4.936-1.77c2.39.095 4.536 1.49 5.723 3.48.166.278.314.566.436.871.122.28.227.567.297.873.13.471.21.96.226 1.465a6.926 6.926 0 0 1-.933 3.768 5.847 5.847 0 0 1-.585.873c-.253.314-.531.61-.837.872a6.84 6.84 0 0 1-3.602 1.675c-2.608.375-4.5 2.538-4.5 5.137l-.001 8.888a3.488 3.488 0 1 0 6.978 0V32.71a13.819 13.819 0 0 0 6.978-4.265c.314-.35.602-.715.872-1.09z" fill="#FC6733"/></svg>