<svg width="16" height="17" viewBox="0 0 16 17" fill="none" xmlns="http://www.w3.org/2000/svg"><mask id="a" style="mask-type:alpha" maskUnits="userSpaceOnUse" x="1" y="1" width="14" height="15"><path fill-rule="evenodd" clip-rule="evenodd" d="M1.334 1.836h13.333V15.17H1.334V1.836z" fill="#fff"/></mask><g mask="url(#a)"><path fill-rule="evenodd" clip-rule="evenodd" d="M5.11 2.836c-1.686 0-2.776 1.156-2.776 2.944v5.446c0 1.788 1.09 2.944 2.776 2.944h5.779c1.688 0 2.778-1.156 2.778-2.944V5.78c0-1.788-1.09-2.944-2.777-2.944H5.11zm5.779 12.334H5.11c-2.259 0-3.776-1.586-3.776-3.944V5.78c0-2.358 1.517-3.944 3.776-3.944h5.78c2.26 0 3.777 1.586 3.777 3.944v5.446c0 2.358-1.518 3.944-3.778 3.944z" fill="#000"/></g><path d="M8.882 11.233a.757.757 0 1 1-1.513 0 .757.757 0 0 1 1.513 0zM8.125 9.88a.556.556 0 0 1-.557-.558c0-.657.398-1.234 1.015-1.493.438-.18.697-.617.697-1.075a1.168 1.168 0 0 0-1.115-1.115c-.319 0-.597.1-.836.319a1.128 1.128 0 0 0-.339.816.556.556 0 0 1-.557.557c-.299 0-.578-.259-.578-.557 0-.617.24-1.195.677-1.633a2.19 2.19 0 0 1 1.653-.637c1.174.04 2.17 1.015 2.21 2.21a2.285 2.285 0 0 1-1.374 2.15c-.2.08-.338.259-.338.458a.556.556 0 0 1-.558.558z" fill="#000"/></svg>