<svg width="16" height="16" viewBox="0 0 16 16" fill="none" xmlns="http://www.w3.org/2000/svg"><mask id="a" style="mask-type:alpha" maskUnits="userSpaceOnUse" x="1" y="1" width="14" height="14"><path fill-rule="evenodd" clip-rule="evenodd" d="M1.333 1.333h13.333v13.334H1.333V1.334z" fill="#fff"/></mask><g mask="url(#a)"><path fill-rule="evenodd" clip-rule="evenodd" d="M5.11 2.333c-1.687 0-2.777 1.156-2.777 2.944v5.446c0 1.788 1.09 2.944 2.776 2.944h5.779c1.688 0 2.779-1.155 2.779-2.944V5.277c0-1.788-1.091-2.944-2.778-2.944H5.11zm5.778 12.334H5.109c-2.258 0-3.776-1.585-3.776-3.944V5.277c0-2.358 1.518-3.944 3.776-3.944h5.78c2.26 0 3.778 1.586 3.778 3.944v5.446c0 2.358-1.518 3.944-3.78 3.944z" fill="#FC6733"/></g><path d="M8.88 10.73a.757.757 0 1 1-1.513 0 .757.757 0 0 1 1.513 0zm-.757-1.353a.556.556 0 0 1-.557-.558c0-.657.398-1.234 1.015-1.493.438-.179.697-.617.697-1.075a1.168 1.168 0 0 0-1.115-1.115c-.318 0-.597.1-.836.319a1.128 1.128 0 0 0-.338.816.556.556 0 0 1-.558.558c-.299 0-.577-.26-.577-.558 0-.617.239-1.195.677-1.633a2.19 2.19 0 0 1 1.652-.637c1.175.04 2.17 1.016 2.21 2.21a2.285 2.285 0 0 1-1.374 2.15c-.199.08-.338.26-.338.458a.556.556 0 0 1-.558.558z" fill="#FC6733"/></svg>