<svg width="20" height="20" viewBox="0 0 20 20" fill="none" xmlns="http://www.w3.org/2000/svg"><path d="M17.582 9.248V5.739c0-.966-.794-1.752-1.77-1.752H4.188c-.976 0-1.77.786-1.77 1.752v3.509a3.066 3.066 0 0 0-1.793 2.777v3.196c0 .223.183.404.408.404h2.331c.226 0 .409-.18.409-.404v-.304h12.454v.304c0 .223.183.404.408.404h2.332c.225 0 .408-.18.408-.404v-3.196c0-1.23-.736-2.289-1.793-2.778zM3.234 5.739a.95.95 0 0 1 .954-.943h11.624a.95.95 0 0 1 .953.943V9a3.101 3.101 0 0 0-.488-.041h-.623v-1.88a.95.95 0 0 0-.953-.944h-3.215a.95.95 0 0 0-.953.944v1.88H9.467v-1.88a.95.95 0 0 0-.953-.944H5.299a.95.95 0 0 0-.953.944v1.88h-.623A3.14 3.14 0 0 0 3.235 9V5.74zm11.602 3.22H11.35v-1.88c0-.074.063-.135.136-.135H14.7c.074 0 .136.061.136.135v1.88zm-6.187 0H5.162v-1.88c0-.074.062-.135.136-.135h3.216c.073 0 .136.061.136.135v1.88zm-4.877 5.15v-.657h12.454v.656H3.772zm14.786.707h-1.514v-1.768a.406.406 0 0 0-.409-.404H3.365a.406.406 0 0 0-.409.404v1.768H1.442v-2.79c0-1.246 1.023-2.26 2.281-2.26h12.554c1.258 0 2.281 1.014 2.281 2.26v2.79z" fill="#FC6733"/></svg>