<svg width="20" height="20" viewBox="0 0 20 20" fill="none" xmlns="http://www.w3.org/2000/svg"><path d="M17.971 15.645l-1.575-1.574a.517.517 0 0 0-.737 0 .516.516 0 0 0 0 .736l.685.684H4.478V3.654l.685.684c.102.103.24.154.376.154a.531.531 0 0 0 .377-.154.516.516 0 0 0 0-.735L4.341 2.029a.517.517 0 0 0-.737 0L2.03 3.603a.516.516 0 0 0 0 .735c.206.205.53.205.736 0l.685-.684V16.02c0 .291.24.53.531.53h12.346l-.685.685a.516.516 0 0 0 0 .735c.103.103.24.154.377.154a.532.532 0 0 0 .377-.154l1.575-1.574a.536.536 0 0 0 0-.752zM7.783 3.518h.53c.292 0 .532-.24.532-.53a.533.533 0 0 0-.531-.531h-.531a.533.533 0 0 0-.532.53c0 .291.24.53.532.53zm2.671 0h.856c.29 0 .53-.24.53-.53a.533.533 0 0 0-.53-.531h-.856a.534.534 0 0 0-.531.53c0 .291.24.53.53.53zm3.014 0h.856c.291 0 .53-.24.53-.53a.532.532 0 0 0-.53-.531h-.856a.534.534 0 0 0-.531.53c0 .291.24.53.53.53zm2.996 0c0 .29.24.53.531.53.291 0 .531-.24.531-.53v-.53a.533.533 0 0 0-.53-.531h-.532a.533.533 0 0 0-.53.53c0 .291.256.53.53.53zm1.062 2.137c0-.29-.24-.53-.53-.53a.533.533 0 0 0-.532.53v.856c0 .29.24.53.531.53.292 0 .531-.24.531-.53v-.856zm0 3.011c0-.29-.24-.53-.53-.53a.533.533 0 0 0-.532.53v.855c0 .291.24.53.531.53a.532.532 0 0 0 .531-.53v-.855zm-.531 2.48a.533.533 0 0 0-.53.53v.53c0 .291.24.53.53.53a.532.532 0 0 0 .531-.53v-.53c0-.308-.24-.53-.53-.53z" fill="#FC6733"/><path d="M7.56 12.942h5.84c.29 0 .53-.24.53-.53V6.579c0-.29-.24-.53-.53-.53H7.56c-.291 0-.53.24-.53.53v5.833c0 .29.239.53.53.53zm.514-5.833h4.794v4.79H8.074v-4.79z" fill="#FC6733"/></svg>