<svg width="20" height="20" viewBox="0 0 20 20" fill="none" xmlns="http://www.w3.org/2000/svg"><g opacity=".4"><mask id="a" style="mask-type:alpha" maskUnits="userSpaceOnUse" x="1" y="1" width="17" height="17"><path fill-rule="evenodd" clip-rule="evenodd" d="M1.667 1.667h16.23v16.23H1.667V1.668z" fill="#fff"/></mask><g mask="url(#a)"><path fill-rule="evenodd" clip-rule="evenodd" d="M9.782 2.917a6.873 6.873 0 0 0-6.865 6.865 6.874 6.874 0 0 0 6.865 6.866 6.873 6.873 0 0 0 6.865-6.866 6.873 6.873 0 0 0-6.865-6.865m0 14.98c-4.475 0-8.115-3.64-8.115-8.115s3.64-8.115 8.115-8.115 8.115 3.64 8.115 8.115-3.64 8.116-8.115 8.116" fill="#fff"/></g><mask id="b" style="mask-type:alpha" maskUnits="userSpaceOnUse" x="14" y="14" width="5" height="5"><path fill-rule="evenodd" clip-rule="evenodd" d="M14.367 14.756h4.186v4.179h-4.186v-4.18z" fill="#fff"/></mask><g mask="url(#b)"><path fill-rule="evenodd" clip-rule="evenodd" d="M17.928 18.935a.623.623 0 0 1-.441-.183l-2.937-2.928a.625.625 0 0 1 .883-.886l2.937 2.93a.624.624 0 0 1-.442 1.067z" fill="#fff"/></g></g></svg>