<svg width="16" height="16" viewBox="0 0 16 16" fill="none" xmlns="http://www.w3.org/2000/svg"><path fill-rule="evenodd" clip-rule="evenodd" d="M7.826 2.333a5.498 5.498 0 0 0-5.493 5.492 5.499 5.499 0 0 0 5.493 5.493 5.499 5.499 0 0 0 5.492-5.492 5.498 5.498 0 0 0-5.492-5.492zm0 11.985a6.5 6.5 0 0 1-6.493-6.492 6.5 6.5 0 0 1 6.493-6.492 6.499 6.499 0 0 1 6.492 6.492 6.5 6.5 0 0 1-6.492 6.492z" fill="#FC6733"/><path d="M7.826 1.833a5.998 5.998 0 0 0-5.993 5.992h1a4.998 4.998 0 0 1 4.993-4.992v-1zM1.833 7.825a5.999 5.999 0 0 0 5.993 5.993v-1a4.999 4.999 0 0 1-4.993-4.992h-1zm5.993 5.993a5.999 5.999 0 0 0 5.992-5.992h-1a4.999 4.999 0 0 1-4.992 4.992v1zm5.992-5.992a5.998 5.998 0 0 0-5.992-5.992v1a4.998 4.998 0 0 1 4.992 4.992h1zm-5.992 5.992a6 6 0 0 1-5.993-5.992h-1a7 7 0 0 0 6.993 6.992v-1zM1.833 7.826a6 6 0 0 1 5.993-5.992v-1a7 7 0 0 0-6.993 6.99h1zm5.993-5.992a5.999 5.999 0 0 1 5.992 5.992h1A6.999 6.999 0 0 0 7.826.832v1zm5.992 5.992a6 6 0 0 1-5.992 5.992v1a7 7 0 0 0 6.992-6.992h-1z" fill="#FC6733"/><path fill-rule="evenodd" clip-rule="evenodd" d="M14.343 15.148a.5.5 0 0 1-.353-.146l-2.35-2.343a.5.5 0 0 1 .707-.709l2.35 2.344a.5.5 0 0 1-.354.854z" fill="#FC6733"/><path d="M14.343 15.148a.5.5 0 0 1-.353-.146l-2.35-2.343a.5.5 0 0 1 .707-.709l2.35 2.344a.5.5 0 0 1-.354.854" stroke="#FC6733"/></svg>