<svg width="20" height="20" viewBox="0 0 20 20" fill="none" xmlns="http://www.w3.org/2000/svg"><path fill-rule="evenodd" clip-rule="evenodd" d="M6.698 16.917a1.66 1.66 0 0 1-.979-.322 1.62 1.62 0 0 1-.645-1.596l.58-3.341a.379.379 0 0 0-.112-.339L3.078 8.952a1.616 1.616 0 0 1-.424-1.671A1.633 1.633 0 0 1 3.99 6.158l3.407-.491a.396.396 0 0 0 .301-.215L9.221 2.41c.28-.56.848-.909 1.48-.909.63 0 1.197.348 1.478.91l1.524 3.042a.4.4 0 0 0 .3.215l3.407.49a1.633 1.633 0 0 1 .911 2.796l-2.463 2.366a.377.377 0 0 0-.112.338l.58 3.342a1.62 1.62 0 0 1-.646 1.596 1.645 1.645 0 0 1-1.746.132L10.89 15.15a.415.415 0 0 0-.38 0l-3.045 1.579a1.666 1.666 0 0 1-.767.189z" fill="#FC6733"/></svg>