<svg width="20" height="20" viewBox="0 0 20 20" fill="none" xmlns="http://www.w3.org/2000/svg"><path d="M14.932 11.933a.917.917 0 0 0-.266.809l.741 4.1a.9.9 0 0 1-.375.9.918.918 0 0 1-.975.066l-3.69-1.925a.942.942 0 0 0-.417-.109h-.226a.678.678 0 0 0-.225.075l-3.692 1.934a.974.974 0 0 1-.591.092.926.926 0 0 1-.742-1.06l.742-4.1a.933.933 0 0 0-.266-.815L1.94 8.983a.9.9 0 0 1-.224-.941.936.936 0 0 1 .741-.625L6.6 6.816a.927.927 0 0 0 .733-.508l1.825-3.741c.044-.084.1-.16.167-.225l.075-.059a.56.56 0 0 1 .134-.108l.09-.033.143-.059h.35c.314.033.59.22.734.5L12.7 6.308a.926.926 0 0 0 .692.508l4.141.6c.35.05.643.292.759.626.109.334.015.7-.242.941l-3.117 2.95z" fill="#fff"/></svg>