<svg width="14" height="14" viewBox="0 0 14 14" fill="none" xmlns="http://www.w3.org/2000/svg"><path fill-rule="evenodd" clip-rule="evenodd" d="M7 2.042A4.964 4.964 0 0 0 2.04 7a4.964 4.964 0 0 0 4.958 4.958A4.964 4.964 0 0 0 11.958 7a4.964 4.964 0 0 0-4.959-4.958zm0 10.791A5.84 5.84 0 0 1 1.165 7a5.84 5.84 0 0 1 5.833-5.833A5.84 5.84 0 0 1 12.833 7a5.84 5.84 0 0 1-5.834 5.833z" fill="#222"/><path fill-rule="evenodd" clip-rule="evenodd" d="M9 9.154a.44.44 0 0 1-.224-.062l-2.2-1.312a.44.44 0 0 1-.213-.376V4.576a.438.438 0 0 1 .875 0v2.58L9.225 8.34A.439.439 0 0 1 9 9.154z" fill="#222"/></svg>