<svg width="22" height="22" viewBox="0 0 22 22" fill="none" xmlns="http://www.w3.org/2000/svg"><path d="M5.2 12.472a1.6 1.6 0 0 1-.282-1.168c.043-.429.239-.787.543-1.049L8.5 7.657 6.09 5.631a.454.454 0 0 0-.587 0L.878 9.54a.466.466 0 0 0-.174.357.458.458 0 0 0 .087.405c.087.12.24.19.326.19h.847v3.934c0 .286.217.524.478.524h3.735v-1.86c-.369-.047-.738-.285-.977-.62zM21.119 9.54L16.47 5.607a.454.454 0 0 0-.586 0l-2.41 2.05 3.061 2.598c.304.262.5.644.543 1.049.044.429-.043.834-.282 1.168a1.411 1.411 0 0 1-.977.596v1.883h3.735c.26 0 .478-.239.478-.525v-3.933h.803a.449.449 0 0 0 .37-.19.573.573 0 0 0-.087-.763z" fill="#222"/><path d="M15.95 11.09l-4.647-3.933a.454.454 0 0 0-.587 0l-4.669 3.932a.576.576 0 0 0-.195.358.654.654 0 0 0 .087.405c.086.12.239.214.325.214h.847v3.91c0 .286.218.524.478.524h4.018v-3.861c0-.143.108-.262.239-.262h1.129c.13 0 .239.119.239.262v3.837h1.13c.26 0 .477-.238.477-.524v-3.91h.803a.418.418 0 0 0 .37-.214.536.536 0 0 0-.044-.739zm-5.581 2.788c0 .143-.109.262-.239.262H9c-.13 0-.238-.119-.238-.262v-1.24c0-.142.108-.261.239-.261h1.13c.13 0 .238.119.238.262v1.24z" fill="#222"/></svg>