<svg width="24" height="24" viewBox="0 0 24 24" fill="none" xmlns="http://www.w3.org/2000/svg"><path fill-rule="evenodd" clip-rule="evenodd" d="M12 3.075c-4.92 0-8.925 4.003-8.925 8.925 0 4.921 4.004 8.925 8.925 8.925 4.921 0 8.925-4.004 8.925-8.925 0-4.922-4.004-8.925-8.925-8.925zM12 22.5C6.21 22.5 1.5 17.79 1.5 12S6.21 1.5 12 1.5 22.5 6.21 22.5 12 17.79 22.5 12 22.5z" fill="#000"/><path fill-rule="evenodd" clip-rule="evenodd" d="M11.994 13.441a.788.788 0 0 1-.788-.787v-4.64a.788.788 0 0 1 1.575 0v4.64a.788.788 0 0 1-.787.787zm.011 3.594a1.054 1.054 0 0 1-1.056-1.05c0-.58.465-1.05 1.045-1.05h.01a1.05 1.05 0 1 1 0 2.1z" fill="#000"/></svg>